<?xml version="1.0" encoding="UTF-8"?>
<!DOCTYPE svg PUBLIC "-//W3C//DTD SVG 1.1//EN" "http://www.w3.org/Graphics/SVG/1.1/DTD/svg11.dtd">
<!-- Creator: CorelDRAW 2019 (64-Bit) -->
<svg xmlns="http://www.w3.org/2000/svg" xml:space="preserve" width="155.838mm" height="153.37mm" version="1.1" style="shape-rendering:geometricPrecision; text-rendering:geometricPrecision; image-rendering:optimizeQuality; fill-rule:evenodd; clip-rule:evenodd"
viewBox="0 0 16316.21 16057.79"
 xmlns:xlink="http://www.w3.org/1999/xlink">
 <defs>
  <style type="text/css">
   <![CDATA[
    .str0 {stroke:#642D2C;stroke-width:20.94;stroke-miterlimit:22.9256}
    .fil2 {fill:#FEFEFE}
    .fil0 {fill:#D2AE6D}
    .fil1 {fill:#642D2C}
    .fil4 {fill:#FEFEFE;fill-rule:nonzero}
    .fil3 {fill:#642D2C;fill-rule:nonzero}
   ]]>
  </style>
 </defs>
 <g id="Capa_x0020_1">
  <metadata id="CorelCorpID_0Corel-Layer"/>
  <g id="_1743204649744">
   <path class="fil0" d="M3934 3192.66c109.1,-142.21 165.49,-214.26 134.61,-323.7 -26.86,-95.15 -68.49,-185.83 -110.2,-275.49 -32.92,-70.76 -12.99,-124.3 52.6,-172.81 1210.71,-895.4 2473.34,-1471.34 4064.69,-1471.34 1292.6,0 2844.77,566.98 4380.26,1700.52 -43.41,65.94 -90.11,132.23 -133.98,197.84 -85.24,127.53 -56.73,266.41 68.88,445.79 124.59,177.95 456.01,765.68 791.17,910.32 99.36,42.87 292.7,-77.48 404.6,-180.77 490.39,971.74 803.94,1939.11 803.94,2897.61 0,1262.55 -473.84,2707.03 -1377.45,3746.62 -253.41,291.56 -209.54,385.72 -145.33,511.11l210.3 410.74c84.05,164.13 165.92,217.94 305.56,100.18 228.86,-193.05 482.45,-295.56 761.35,-325.58 -119.25,259.64 -71.53,406.35 150.26,485.87 281.79,101.01 529.96,291.14 786.41,468.33 60.1,41.52 121.1,37.52 187.56,-27.79 92.33,-90.71 137.31,-170.36 70.39,-245.21 -86.63,-96.87 -189.64,-182.33 -279.59,-274.46 -84.6,-86.66 -65.57,-198.74 -53.49,-311.56 49.26,96 56.58,251.63 162.78,225.39 121.37,-29.99 235.13,-38.54 338.12,-25.03 76.41,10.03 124.37,11.68 117.69,-35.06 -27.56,-43.42 -32.55,-86.83 -37.57,-130.24 683.82,645.62 -113.58,2643.82 -2148.83,2794.94 -1871.37,138.97 -2839.64,-1632.57 -5409.57,-920.37 -2129.16,-630.18 -3769.66,815.19 -5324.42,815.19 -1291.62,0 -2335.87,-1281.74 -2210.34,-2225.05 23.6,-177.36 106.3,-353.32 223.07,-472.22 9.59,92.66 -52.57,174.95 48.84,157.77 109.54,-18.55 260.26,-21.04 355.62,0.01 114.96,25.39 136.08,-44.24 185.33,-197.85 17.82,114.41 0.4,228.83 -77.65,323.07 -65.14,78.66 -144.39,144.67 -220.39,212.89 -84.62,75.93 -85.73,147.34 -0.31,247.79 66.9,78.67 145.76,138.83 260.8,50.25 253.39,-195.1 507.01,-346 813.94,-485.85 147.2,-67.07 200.44,-213.73 130.23,-371.91 286.76,79.46 573.52,140.1 860.27,192.84 164.04,20.46 172.8,-38.38 194.09,-171.54 29.65,-185.29 127.01,-317.45 262.95,-498.39 87.88,-116.99 17.64,-172.07 -82.82,-302.87 -819.05,-1066.26 -1303.75,-2379.03 -1344.7,-3576.48 -36.27,-1060.5 85.4,-2088.32 690.61,-3191.25 58.43,43.41 117.72,82.61 183.45,124.59 113.45,72.46 217.8,32.11 373.16,-123.95 197.68,-198.59 396.1,-439.1 583.09,-682.86z"/>
   <path class="fil1" d="M7888.78 14370.11c-625.42,388.64 -1156.91,951.75 -1595.33,1687.68 63.45,-300.44 132.75,-585.84 222.89,-886.27 -435.55,54.08 -799.16,264.83 -1114.47,571.01 391.52,-620.17 848.29,-1174.99 1333.3,-1608.14 -1277.57,-131.81 -2666.36,941.97 -3937.92,941.97 -1174.7,0 -2797.25,-892.79 -2797.25,-2421.8 0,-675.26 418.81,-1669.74 1675.2,-1565.28l180.33 -120.22c-232.75,-52.39 -503.52,-36.16 -766.37,-25.04 435.47,-149.21 871.7,-292.01 1327.36,-276.11 -1780.05,-2490.38 -1646.81,-4985.57 -167.76,-7422.55 55.1,-90.16 157.42,-109.81 240.42,-30.05l192.84 185.32c214.08,-133.81 420.39,-347.42 621.11,-594.79 -62.6,-76.81 -126.08,-152.95 -187.82,-230.42 -113.53,-142.5 -128.43,-257.58 7.52,-418.26 1225.85,-1448.75 3272.12,-2157.16 4933.81,-2157.16 1534.56,0 3783.52,762.95 5213.53,2329.98 85.6,93.8 55.49,212.51 -24.5,291.97 -42.77,42.48 -88.01,83.75 -135.16,117.5 119.27,244.36 308.51,468.08 536.33,629.8 71.66,-22.93 142.09,-53.39 213.74,-76.32 111.11,-35.52 204.58,-37.44 257.94,37.21 801.26,1120.84 1142.43,2356.81 1148.88,3536.47 8.21,1496.04 -515.79,2901.59 -1255.25,3867.02 360.34,-89.78 714.86,-33.79 1061.87,210.36 -191.91,-3.71 -382.5,7.08 -571.02,40.1 34.68,56.78 52.96,82.23 77.63,138.99 1176.78,-139.47 1735.57,743.91 1735.57,1567.8 0,1481.2 -1591.4,2428.06 -2971.51,2428.06 -1412.49,0 -2498.4,-1060.77 -4141.07,-1111.98 627.37,502.86 1132.71,1072.27 1612.84,1655.45 -336.43,-180.92 -672.86,-355.02 -1009.28,-515.91 81.18,291.24 154.22,582.48 215.38,873.72 -599.02,-648.92 -1246.45,-1269.63 -2133.8,-1650.11zm-4566.3 -10466.8l34.1 6616.74c-763.36,-1043.27 -1213.49,-2301.95 -1252.89,-3453.92 -36.26,-1060.5 85.4,-2088.32 690.61,-3191.24 58.43,43.4 117.72,82.6 183.47,124.59 106.37,67.93 204.76,36.7 344.71,-96.17zm248.06 6956.3l3932.63 0c10.85,133.57 86.97,363.15 303.03,363.15l796.41 0c171.18,0 277.16,-136.92 345.62,-363.15l3959.46 -58.76c-132.33,191.12 -93.1,273.6 -39.89,377.5l210.31 410.74c84.03,164.13 165.91,217.94 305.54,100.18 228.87,-193.05 482.45,-295.56 761.35,-325.58 -119.25,259.64 -71.54,406.35 150.25,485.87 281.8,101.01 529.97,291.14 786.42,468.33 60.1,41.52 121.09,37.52 187.56,-27.79 92.35,-90.71 137.31,-170.36 70.39,-245.2 -86.62,-96.88 -189.64,-182.34 -279.59,-274.47 -84.6,-86.66 -65.57,-198.74 -53.49,-311.56 49.26,96 56.57,251.63 162.78,225.4 121.36,-29.99 235.13,-38.55 338.11,-25.04 76.42,10.02 124.38,11.68 117.7,-35.07 -27.55,-43.41 -32.55,-86.82 -37.58,-130.21 683.85,645.62 -113.57,2643.8 -2148.81,2794.93 -1871.38,138.98 -2839.64,-1632.57 -5409.58,-920.37 -2129.15,-630.18 -3769.66,815.2 -5324.42,815.2 -1291.62,0 -2335.88,-1281.74 -2210.34,-2225.06 23.6,-177.35 106.3,-353.32 223.07,-472.22 9.59,92.66 -52.57,174.95 48.84,157.78 109.53,-18.56 260.26,-21.06 355.63,0 114.96,25.39 136.07,-44.24 185.33,-197.85 17.81,114.42 0.39,228.84 -77.66,323.08 -65.13,78.66 -144.39,144.66 -220.4,212.88 -84.61,75.93 -85.72,147.34 -0.3,247.8 66.9,78.66 145.76,138.82 260.79,50.25 253.4,-195.11 507.01,-346.01 813.96,-485.85 147.19,-67.09 200.44,-213.73 130.23,-371.92 286.75,79.46 573.51,140.1 860.27,192.84 164.04,20.45 172.8,-38.38 194.09,-171.54 29.65,-185.29 127.01,-317.46 262.95,-498.39 24.34,-32.4 36.53,-60.06 39.34,-85.87zm9432.07 -180.16l67.63 -3690.12 769.4 0 -128.4 215.4 189.59 0 100.06 -171.86 84.21 171.86 204.56 0 -167.08 -279.3 155.61 -254.25 -193.1 0 -84.21 148.72 -72.75 -148.72 -208.09 0 135.2 217.97 -783.15 0 49.78 -2716.02c20.01,11.67 40.09,21.99 60.17,30.65 99.36,42.88 292.7,-77.49 404.61,-180.78 490.38,971.75 803.93,1939.12 803.93,2897.62 0,1262.55 -473.84,2707.03 -1377.45,3746.62l-10.52 12.21zm-612.61 -7387.22c-380.07,58.22 -770.77,68.49 -1282.9,-66.12 -1230.81,-323.51 -2228.77,-421.33 -2829.79,8.48l0 -1514.58 -66.79 0 0 1506.53c-571.12,-306.92 -1402.06,-234.56 -2237.51,-75.57 -664.11,126.39 -1348.24,159.45 -2054.33,61.64l15.34 -19.95c109.09,-142.22 165.48,-214.27 134.6,-323.71 -26.86,-95.15 -68.49,-185.83 -110.2,-275.49 -32.92,-70.77 -12.98,-124.3 52.59,-172.81 1210.74,-895.4 2473.35,-1471.34 4064.7,-1471.34 1292.6,0 2844.77,566.97 4380.26,1700.52 -43.4,65.94 -90.11,132.24 -133.98,197.84 -85.04,127.24 -56.87,265.79 68.01,444.55zm-4440.8 -2214.51l187.72 0 110.67 184.16 110.16 -184.16 186.71 0 -212.44 318 0 229.12 -169.63 0 0 -229.12 -213.19 -318zm-4916.82 11370.39c-472.93,-17.09 -874.44,85.96 -1187.1,356.89 324.73,-70.13 649.47,-110.21 974.22,-110.21 -454.95,268.45 -797.27,551.33 -931.65,846.51 546.18,-298.02 1217.62,-469.25 2121.27,-313.06 231.67,40.04 420.92,-171.04 90.14,-499.63 1270.37,-355.83 2646.52,-412.89 3997.12,-399.45 1476.03,14.67 2811.64,187.02 4217.48,368.16 -211.36,382.32 -225.51,648.3 85.12,568.49 786.95,-202.13 1441.06,-75.29 2084.97,250.46 -239.96,-237.95 -485.92,-474.18 -737.56,-708.76 245.43,-13.15 490.87,-12.7 736.31,7.53 -316.25,-242.41 -716.41,-317 -1159.56,-305.56 154.88,-145.2 25.12,-258.66 -118.02,-314.86 -716.13,-281.18 -3392.33,-661.88 -5008.57,-661.88 -1778.57,0 -4194.67,300.8 -5091.54,783.91 -58.07,31.28 -73.46,53.85 -72.62,131.47zm11070.34 -10494.39l0 -792.67 351.31 0c70.66,0 124.37,7.2 161.09,21.41 36.71,14.21 66.04,39.29 88.01,75.28 21.95,35.99 32.83,75.84 32.83,119.38 0,56.28 -18.27,103.7 -54.62,142.27 -36.34,38.56 -92.43,62.91 -168.45,73.43 27.86,13.29 48.89,26.57 63.28,39.49 30.64,28.05 59.62,63.29 86.73,105.54l137.08 215.88 -131 0 -104.8 -164.94c-30.45,-47.8 -55.72,-84.15 -75.46,-109.42 -19.93,-25.28 -37.65,-42.81 -53.32,-52.96 -15.5,-9.96 -31.57,-16.97 -47.8,-21.03 -11.8,-2.4 -31.19,-3.69 -58.31,-3.69l-121.4 0 0 352.04 -105.18 0zm105.18 -442.84l225.09 0c47.98,0 85.25,-4.97 112.19,-14.93 26.94,-9.79 47.42,-25.65 61.26,-47.61 14.03,-21.78 21.03,-45.4 21.03,-71.04 0,-37.46 -13.47,-68.45 -40.59,-92.63 -27.12,-24.18 -69.94,-36.16 -128.41,-36.16l-250.57 0 0 262.37zm192.19 -581.64c354.6,0 642.06,283.53 642.06,633.24 0,349.74 -287.46,633.28 -642.06,633.28 -354.6,0 -642.04,-283.54 -642.04,-633.28 0,-349.72 287.44,-633.24 642.04,-633.24zm0 -96.86c408.84,0 740.26,326.89 740.26,730.1 0,403.24 -331.42,730.13 -740.26,730.13 -408.83,0 -740.25,-326.89 -740.25,-730.13 0,-403.21 331.42,-730.1 740.25,-730.1z"/>
   <path class="fil2" d="M3746.4 3333.89c-116.24,-18.42 -213.12,9.62 -279.24,111.44l123.13 6877.79 256.88 -186.84 -99.53 -6802.27 -1.24 -0.13zm-140.44 7039.67c595.21,287.66 1359.8,388.41 2269.15,298.33 1002.17,-99.27 1942.85,-219.84 2053.64,215.4l606.07 0c243.47,-585.02 954.1,-520.99 1928.42,-330.59 680.2,132.92 1452.79,117.66 2145.67,-12.56l-188.7 -302.92c-191.76,110.3 -480.03,138.67 -827.62,122.16 -359.26,-17.06 -782.38,-82 -1227.76,-153.67 -660.38,-106.27 -1131.54,-106.71 -1464.56,-34.86 -330.48,71.3 -524.09,213.86 -631.46,394.56l-8.1 13.63 -11.37 -11.04c-247.27,-240.14 -604.89,-366.51 -1047.21,-402.59 -444.03,-36.24 -973.04,18.47 -1561.24,140.39 -621.81,128.89 -962.28,49.06 -1305.97,-31.53 -150.2,-35.22 -301.05,-70.61 -475.95,-88.49l-0.34 -0.03 -252.68 183.8zm9018.77 101.4l272.81 -6830.48c-84.95,-152.6 -177.82,-225.75 -275,-255.99l-173.95 6803.71 176.15 282.76zm-27.09 -7089.63c-598.3,84.28 -1198.19,73.5 -1773.82,-101.5 -1330.66,-404.52 -2173.31,-279.02 -2614.64,200.36 -366.3,-543.75 -1290.76,-356.56 -2464.36,-180.31 -669.26,100.5 -1327.49,98.52 -1972.19,32.71l99.93 6829.5c172.03,18.4 320.36,53.19 468.05,87.82 341.06,79.97 678.93,159.19 1295.3,31.43 590.53,-122.4 1121.86,-177.3 1568.19,-140.88 441.38,36.01 800.09,161.32 1051.37,398.82 112.27,-180.08 309.49,-321.68 639.63,-392.9 335.76,-72.44 809.95,-72.13 1473.66,34.68 444.56,71.54 866.9,136.35 1225.02,153.36 352.72,16.74 642.73,-12.83 829.39,-128.09l174.48 -6825.01z"/>
   <g>
    <polygon class="fil1" points="9515.6,9312.3 9736.97,9072.93 9819.06,9064.96 9868.85,9039.06 9896.58,8988.66 10329.22,9707.95 9535.63,9377.69 "/>
    <polygon class="fil2" points="9594.58,9323.87 10145.56,9549.28 9814.97,8993.3 "/>
    <g>
     <path class="fil3 str0" d="M9150.67 4771.76c69.08,-56.88 172.91,-153.85 243.1,-199.4 2.07,-1.53 4.64,-2.43 7.41,-2.43l143.48 0c-16.89,-24.02 -33.99,-47.43 -51.26,-70.17 -20.57,-27.1 -41.87,-53.81 -63.82,-80.11l-518.84 0c41.97,51.77 83,106.67 122.6,164.47 40.85,59.62 80.14,122.25 117.33,187.63zm-2975.3 64.54l125.39 -925.39 327.33 659.18 56.97 0c40.84,-59 83.46,-115.05 127.66,-167.89 -27.97,-142 -61.46,-285.4 -92,-427.13l-1.28 -8.26c-0.6,-3.89 0.68,-7.65 3.15,-10.35 29.05,-31.65 58.85,-62.33 89.35,-91.94 30.05,-29.18 60.8,-57.35 92.21,-84.4 30.69,-26.44 61.77,-51.59 93.16,-75.4 31.57,-23.97 63.09,-46.34 94.48,-67.08 2.1,-1.6 4.72,-2.55 7.56,-2.55l515.02 0c5.85,-68.32 8.96,-143.95 18.58,-211.06 0.79,-5.57 5.17,-9.77 10.46,-10.59 35.04,-5.88 70.21,-10.34 105.38,-13.3 35.07,-2.95 70.38,-4.44 105.84,-4.44l550.99 0c34.84,0 69.56,1.44 104.06,4.29 34.23,2.82 68.5,7.09 102.73,12.73 5.26,0.45 9.6,4.2 10.97,9.14l2.58 6.9c0.41,1.08 0.65,2.18 0.74,3.27l17.57 202.96 516.52 0c2.82,0 5.41,0.93 7.51,2.5 31.99,21.17 64.1,43.98 96.25,68.43 31.68,24.08 63.26,49.72 94.68,76.89 30.87,26.7 61.1,54.46 90.63,83.2 29.77,28.96 58.88,58.95 87.27,89.83 2.32,2.27 3.78,5.43 3.78,8.95l0.35 8.78c0.04,1.07 -0.05,2.11 -0.27,3.12 -30.72,142.15 -60.38,285.02 -92.29,426.83 21.59,25.86 43.13,52.94 64.57,81.16 21.11,27.79 41.75,56.23 61.83,85.24l377.1 0c5.14,0 9.58,3.11 11.5,7.56 22.65,43.81 44.59,88.44 65.74,133.82 21.12,45.35 41.8,92.1 61.94,140.22 19.48,46.53 38.33,94.1 56.53,142.59 18.26,48.67 35.63,97.64 52.07,146.81 0.81,2.42 0.84,4.9 0.22,7.19l-2.05 7.78c-0.4,1.96 -1.26,3.75 -2.45,5.27 -66.96,101.78 -135.08,203.39 -201.1,305.71 25.57,84.81 48.66,171.74 69.1,260.49 20,86.85 37.58,175.83 52.57,266.66l268.44 8.87 5.59 0.89c6.08,0.61 10.89,5.59 11.24,11.75 7.63,55.82 14.46,112.07 20.4,168.65 5.97,56.85 11.1,114.02 15.31,171.4 4.13,56.16 7.4,112.71 9.82,169.5 2.42,56.57 3.97,113.15 4.65,169.68 0.03,2.9 -0.92,5.58 -2.57,7.73l-4.39 5.8c-1.33,1.75 -3.04,3.04 -4.9,3.85l-262.38 115.84c-1.34,95.66 -5.45,189.86 -12.21,282.4 -6.87,94.26 -16.54,187.4 -28.83,279.1l239.33 217.21 4.1 4.53c2.43,2.28 3.94,5.53 3.94,9.11 0,1.05 -0.13,2.07 -0.38,3.05 -9.04,55.7 -18.88,110.71 -29.49,164.95 -10.66,54.43 -22.27,108.92 -34.82,163.38 -12.28,53.3 -25.37,105.97 -39.18,157.9 -13.77,51.75 -28.36,103 -43.75,153.68 -1.35,4.49 -5.04,7.65 -9.32,8.57 -1.63,0.77 -3.46,1.21 -5.38,1.21l-301.16 0c-23.51,63.4 -48.54,125.4 -74.98,185.8 -26.86,61.36 -55.11,120.88 -84.64,178.35 47.88,123.92 113.64,261.35 153.87,384.99 0.61,1.48 0.94,3.08 0.94,4.77 0,2.6 -0.79,4.99 -2.14,6.99 -23.44,41.89 -47.68,83.07 -72.67,123.43 -25.08,40.47 -50.78,79.94 -77.08,118.28 -25.79,37.59 -52.22,74.21 -79.27,109.8 -27.18,35.78 -54.51,69.96 -81.89,102.46 -2.29,3.06 -5.94,5.04 -10.03,5.04l-513.7 0c8.56,140.11 18.41,280.71 25.3,420.83 0,4.98 -2.91,9.29 -7.12,11.31 -32.76,19.21 -65.9,37.15 -99.37,53.71 -33.76,16.7 -67.8,32.04 -102.06,45.9 -33.57,13.59 -67.48,25.82 -101.68,36.7 -34.24,10.89 -68.18,20.25 -101.75,28.09 -1.11,0.31 -2.26,0.48 -3.47,0.48l-551 0c-2.74,0 -5.29,-0.89 -7.35,-2.4 -2.08,1.54 -4.66,2.45 -7.44,2.45l-551 0c-1.21,0 -2.39,-0.17 -3.5,-0.5 -34.21,-7.99 -68.75,-17.56 -103.56,-28.68 -34.77,-11.11 -69.26,-23.63 -103.37,-37.52 -33.68,-13.74 -67.13,-28.87 -100.3,-45.32 -33.19,-16.47 -66.04,-34.31 -98.49,-53.39 -3.22,-1.9 -5.29,-5.02 -5.94,-8.43l-1.75 -8.86c-0.21,-1.1 -0.26,-2.19 -0.19,-3.25l25.34 -410.97 -512.11 0c-4.25,0 -8.01,-2.13 -10.27,-5.36 -28.36,-33.68 -56.11,-68.38 -83.16,-104.06l-0.53 -0.77c-27.28,-36 -53.95,-73.05 -79.96,-111.09 -25.83,-37.79 -51.07,-76.64 -75.71,-116.49 -24.71,-39.96 -48.67,-80.71 -71.83,-122.16 -1.31,-2.33 -1.77,-4.91 -1.51,-7.39l0.96 -9.16c0.15,-1.35 0.49,-2.63 1.03,-3.79l150.59 -374.86 0.97 -2.88c-37.16,-72.48 -72.21,-147.96 -104.95,-226.12 -18.68,-44.6 -36.64,-90.15 -53.85,-136.6l-303.66 0c-6.04,0 -11.1,-4.29 -12.26,-10 -15.54,-51.3 -30.3,-103.19 -44.2,-155.59 -14,-52.79 -27.24,-106.3 -39.67,-160.49 -12.29,-53.57 -23.67,-107.17 -34.11,-160.71 -10.47,-53.61 -20.18,-108.01 -29.1,-163.11 -0.42,-2.67 0.03,-5.26 1.15,-7.52l3.32 -7.09c0.77,-1.66 1.87,-3.08 3.19,-4.19l239.13 -216.61c-12.24,-91.66 -21.84,-184.75 -28.66,-278.95 -6.7,-92.61 -10.77,-186.9 -12.06,-282.64l-262.35 -116.21 -5.88 -3.49c-3.91,-2.37 -6.05,-6.54 -6.01,-10.82 0.69,-57.6 2.29,-115.24 4.8,-172.84 2.49,-57.73 5.87,-115.22 10.13,-172.35 4.19,-56.31 9.26,-112.48 15.16,-168.45 5.89,-55.9 12.66,-111.43 20.23,-166.56 0.46,-3.43 2.28,-6.36 4.86,-8.29l5.1 -3.89c2.35,-1.76 5.1,-2.59 7.81,-2.51l267.78 -8.48c13.2,-79.64 28.37,-157.87 45.43,-234.45l-1108.13 -2200.64 1090.38 1287.54 3.28 -7.78zm465.16 -241.16l11.71 23.56c5.2,-7.9 10.45,-15.76 15.7,-23.56l-27.41 0zm321.62 1686.53l-296.48 -532.23c-37.02,118.83 -67.72,243.88 -91.34,373.93 -36.53,201.18 -56.17,414.59 -56.17,635.77 0,217.01 18.93,426.71 54.2,624.83 34.83,195.61 85.61,379.98 149.85,548.93l298.97 -492.57c-32.83,-105.28 -58.5,-217.67 -75.85,-335.37 -17.14,-116.15 -26.24,-237.42 -26.24,-362.07 0,-124.63 9.1,-245.88 26.23,-362.01 4.94,-33.51 10.57,-66.59 16.84,-99.2zm2459.51 -1686.69c19.48,38.19 38.42,77 56.77,116.36 21.12,45.33 41.8,92.08 61.93,140.19 19.48,46.53 38.33,94.08 56.54,142.56 18.26,48.67 35.62,97.64 52.06,146.8l524.66 0c-15.69,-46.63 -32.07,-92.68 -49.09,-138.06 -17.74,-47.26 -36.49,-94.53 -56.24,-141.72 -19.78,-47.25 -40.33,-93.69 -61.54,-139.24 -20.33,-43.64 -41.07,-85.96 -62.14,-126.9l-373.33 0c-1.63,0.34 -3.32,0.32 -4.95,0l-144.65 0zm25.01 882.17c24.36,81.62 46.44,165.19 66.08,250.45 19.97,86.73 37.51,175.54 52.48,266.22l525.69 0c-14.72,-88.62 -31.96,-175.65 -51.59,-260.86 -20.19,-87.59 -42.8,-172.96 -67.7,-255.81l-524.95 0zm405.66 551.63c6.91,51.47 13.13,103.3 18.59,155.42 5.98,56.85 11.1,114.02 15.31,171.4 4.13,56.16 7.4,112.71 9.83,169.5 2.27,53.41 3.78,106.82 4.52,160.2l526.04 0c-0.72,-52.68 -2.24,-105.78 -4.52,-159.22 -2.38,-55.56 -5.65,-111.83 -9.82,-168.72 -4.24,-57.67 -9.33,-114.56 -15.21,-170.63 -5.59,-53.29 -11.91,-105.97 -18.94,-157.95l-525.8 0zm-248.8 1377.12l221.24 200.79 1.09 1.12 513.92 0 -220.42 -200.07 -2.18 -1.84 -513.65 0zm227.36 226.96c-8.62,52.46 -17.94,104.31 -27.95,155.48 -10.66,54.43 -22.27,108.92 -34.82,163.38 -12.28,53.3 -25.37,105.97 -39.18,157.9 -12.39,46.57 -25.45,92.73 -39.15,138.42l524.95 0c14.23,-47.21 27.93,-95.49 41.04,-144.78 13.66,-51.4 26.68,-103.78 38.97,-157.13 12.41,-53.81 23.94,-108.04 34.63,-162.59 9.9,-50.61 18.98,-100.87 27.21,-150.68l-525.71 0zm-616.44 1016.25l146.51 365.37 524.09 0 -146.52 -365.37 -524.08 0zm-179.62 842l-4.36 -2.18c-1.9,-0.95 -3.43,-2.31 -4.59,-3.93l-16.48 -23.09 -483.57 0 26.87 439.38 525.97 0 -24.97 -408.31 -12.26 0c-2.44,0 -4.7,-0.69 -6.62,-1.88zm-918.45 562.06l-96.15 -393.99c-25.76,3.92 -51.52,6.94 -77.26,9.04 -29.32,2.37 -58.79,3.57 -88.34,3.57 -29.86,0 -59.63,-1.24 -89.24,-3.65 -25.96,-2.13 -51.93,-5.2 -77.9,-9.19l-99.32 406.09 525.29 0 2.9 -11.85zm-995.16 -6393.03l151.35 347.02c51.2,-29.19 103.53,-54.65 156.8,-76.17 53.83,-21.74 108.59,-39.45 164.14,-52.9l18.71 -217.94 -491 0zm955.04 -222.41l37.82 438.08 381.84 0c32.1,-73.49 65.99,-164.01 102.45,-233.38 1.95,-4.39 6.34,-7.44 11.44,-7.44l9.35 0 -17.05 -197.26 -525.85 0zm120.39 463.13c28.08,9 55.91,19.09 83.48,30.23 53.65,21.66 106.37,47.38 158.03,76.93l46.8 -107.16 -288.31 0zm453.88 -240.81c20.97,14.6 41.99,29.89 63.03,45.88 31.69,24.08 63.27,49.72 94.68,76.89 30.87,26.7 61.1,54.46 90.64,83.2 28.61,27.85 56.63,56.63 83.98,86.26l516.82 0c-22.09,-23.45 -44.52,-46.26 -67.22,-68.35 -29.35,-28.55 -59.21,-56 -89.55,-82.24 -30.83,-26.67 -62.01,-51.97 -93.47,-75.91 -30.33,-23.09 -61.14,-45.01 -92.37,-65.74l-506.55 0zm-626.51 1574.86c18.13,5.42 36.09,11.71 53.86,18.81 69.32,27.75 135.62,68.15 197.88,119.59l84 -138.4 -335.74 0zm350.94 -25.04l193.67 -319.06c-104.14,-109.16 -218.02,-195.18 -338.9,-253.65 -32.69,-15.81 -65.9,-29.61 -99.59,-41.31 -78.89,27.42 -155.31,66.39 -228.51,115.8 -73.52,49.63 -143.77,109.75 -210.01,179.19l193.63 319.03 489.7 0zm-1227.77 -308.19l286.29 471.65c62.24,-51.44 128.53,-91.84 197.86,-119.59 71.59,-28.67 146.37,-43.87 223.27,-43.87l1.48 0 -187.06 -308.19 -521.84 0zm1544.25 1154.7c31.23,102.11 55.72,210.8 72.48,324.44 17.15,116.16 26.24,237.42 26.24,362.07 0,124.63 -9.09,245.89 -26.23,362.02 -16.77,113.64 -41.26,222.35 -72.47,324.47l437.04 0c2.9,-15.1 5.72,-30.27 8.43,-45.5 35.27,-198.07 54.2,-407.74 54.2,-624.73 0,-221.19 -19.65,-434.62 -56.19,-635.81 -4.07,-22.47 -8.38,-44.8 -12.87,-66.97l-430.63 0zm5.23 1398.05l290.42 478.46c56.44,-148.55 102.51,-308.96 136.49,-478.46l-426.9 0zm-116.08 1160.22l-205.59 -338.73 -489.71 0 -205.61 338.76c67.88,72.85 139.99,135.8 215.52,187.56 75.11,51.47 153.7,91.97 234.95,120.21 35.97,-12.5 71.42,-27.39 106.25,-44.58 123.03,-60.69 238.7,-150.01 344.19,-263.2zm-725.98 -338.73c-76.89,0 -151.67,-15.21 -223.25,-43.86 -69.31,-27.75 -135.6,-68.15 -197.86,-119.58l-298.19 491.27 521.82 0 198.99 -327.84 -1.51 0zm-712.61 352.88c101.87,106.5 212.99,190.92 330.87,249.07 120.91,59.64 249.06,91.71 381.76,91.71 80.84,0 160.01,-11.89 236.89,-34.7 -72.57,-28.09 -142.87,-65.73 -210.4,-112.01 -78.13,-53.54 -152.57,-118.69 -222.46,-194.07l-516.66 0z"/>
     <polygon class="fil2" points="5365.31,3985.05 6427.19,6068.73 6517.35,5334.95 7459.02,7025.44 7589.24,6549.6 8043.38,7049.6 8042.2,6502.71 7268.67,5385.02 7181.02,5845.85 6347.06,4165.38 6221.83,5016.88 "/>
    </g>
   </g>
   <path class="fil3" d="M7240.82 5520.35c270.89,-196.38 542.04,-377.87 809.95,-543.29 -685.36,-412.8 -1345.16,-717.74 -1919.01,-896 -848.42,-263.55 -1503.65,-250.72 -1764.54,100.93 -260.93,351.7 -83.27,982.48 414.92,1717.94 31.16,45.98 63.56,92.37 97.18,139.08 100.16,-44.37 207.31,-86.61 320.97,-126.44 550.24,-192.86 1253.79,-331.78 2040.53,-392.24zm889.84 -592.18c704.63,-427.75 1384.25,-743.34 1974.46,-926.66 883.09,-274.32 1571.49,-252.36 1855.84,130.93 284.31,383.22 105.67,1048.45 -412.98,1814.13 -28.6,42.23 -58.3,84.8 -88.96,127.63 526.44,248.36 838.19,559.67 838.19,899.92 0,340.25 -311.74,651.59 -838.19,899.96 30.67,42.83 60.36,85.39 88.96,127.62 518.65,765.68 697.29,1430.91 412.98,1814.14 -284.35,383.27 -972.75,405.24 -1855.84,130.93 -590.2,-183.33 -1269.83,-498.92 -1974.46,-926.67 -704.63,427.76 -1384.25,743.35 -1974.45,926.67 -883.1,274.31 -1571.5,252.35 -1855.85,-130.93 -284.31,-383.23 -105.67,-1048.46 412.99,-1814.14 28.6,-42.23 58.3,-84.79 88.95,-127.62 -526.44,-248.37 -838.19,-559.7 -838.19,-899.96 0,-340.25 311.74,-651.58 838.19,-899.92 -30.66,-42.83 -60.35,-85.4 -88.95,-127.63 -518.66,-765.68 -697.3,-1430.91 -412.99,-1814.13 284.35,-383.28 972.75,-405.25 1855.85,-130.93 590.19,183.33 1269.82,498.91 1974.45,926.66zm1998.91 -847.1c-573.85,178.26 -1233.65,483.2 -1919.02,896 267.91,165.4 539.06,346.9 809.95,543.29 786.74,60.45 1490.29,199.38 2040.54,392.24 113.65,39.83 220.8,82.06 320.96,126.44 33.62,-46.72 66.03,-93.1 97.18,-139.08 498.19,-735.46 675.86,-1366.25 414.93,-1717.94 -260.89,-351.65 -916.13,-364.48 -1764.54,-100.93zm-1998.91 944.53c-241.91,148.25 -486.7,309.76 -731.75,483.73 237.56,-14.87 482.09,-22.63 731.75,-22.63 249.66,0 494.18,7.76 731.75,22.63 -245.04,-173.96 -489.84,-335.49 -731.75,-483.73zm-860.41 576.19c-34.04,24.76 -68.08,49.76 -102.09,75.01 -566.1,419.99 -1070.66,861.82 -1494.69,1297.33 424.03,435.52 928.59,877.35 1494.69,1297.33 34.02,25.24 68.05,50.25 102.09,75.01 277.42,20.7 565.24,31.61 860.41,31.61 295.18,0 583,-10.91 860.41,-31.61 34.04,-24.76 68.08,-49.76 102.09,-75.01 566.1,-419.98 1070.67,-861.82 1494.69,-1297.33 -424.02,-435.52 -928.59,-877.34 -1494.69,-1297.33 -34.02,-25.24 -68.05,-50.25 -102.09,-75.01 -277.41,-20.69 -565.23,-31.6 -860.41,-31.6 -295.17,0 -582.99,10.91 -860.41,31.6zm4139.21 540.7c-197.95,269.1 -435.01,548.86 -706.06,831.64 271.06,282.78 508.12,562.54 706.06,831.65 505.02,-234.34 804.27,-522.48 804.27,-831.66 0,-309.17 -299.25,-597.3 -804.27,-831.63zm-763.86 891.43c-425.23,436.6 -930.34,879.1 -1496.47,1299.6 724.96,-64.73 1372.4,-196.95 1884.51,-376.44 105.43,-36.95 205,-75.84 298.28,-116.47 -193.19,-261.17 -423.55,-532.42 -686.32,-806.7zm0 -119.59c262.76,-274.28 493.15,-545.54 686.32,-806.69 -93.27,-40.63 -192.85,-79.52 -298.28,-116.48 -512.11,-179.49 -1159.55,-311.71 -1884.51,-376.44 566.13,420.52 1071.23,863.02 1496.47,1299.6zm-1625.1 1513.58c-270.89,196.37 -542.04,377.86 -809.95,543.29 685.36,412.79 1345.17,717.74 1919.02,895.99 848.41,263.56 1503.65,250.73 1764.54,-100.92 260.92,-351.71 83.26,-982.49 -414.93,-1717.94 -31.15,-45.98 -63.56,-92.37 -97.18,-139.09 -100.16,44.38 -207.31,86.61 -320.96,126.45 -550.25,192.85 -1253.8,331.77 -2040.54,392.24zm-2888.74 1439.27c573.85,-178.25 1233.64,-483.19 1919.01,-895.99 -267.91,-165.41 -539.06,-346.91 -809.95,-543.29 -786.74,-60.46 -1490.29,-199.39 -2040.53,-392.24 -113.66,-39.84 -220.81,-82.06 -320.97,-126.45 -33.62,46.73 -66.02,93.11 -97.18,139.09 -498.19,735.45 -675.86,1366.24 -414.92,1717.94 260.89,351.65 916.12,364.48 1764.54,100.92zm1998.9 -944.53c241.91,-148.24 486.71,-309.75 731.75,-483.72 -237.55,14.86 -482.09,22.63 -731.75,22.63 -249.66,0 -494.17,-7.77 -731.75,-22.63 245.05,173.96 489.84,335.49 731.75,483.72zm-3278.79 -1116.88c197.95,-269.12 435,-548.87 706.05,-831.65 -271.06,-282.78 -508.11,-562.54 -706.06,-831.64 -505.02,234.33 -804.26,522.46 -804.26,831.63 0,309.18 299.24,597.31 804.27,831.66zm763.85 -891.44c425.24,-436.59 930.35,-879.09 1496.47,-1299.6 -724.96,64.73 -1372.4,196.95 -1884.51,376.44 -105.42,36.96 -205,75.85 -298.28,116.48 193.18,261.15 423.55,532.41 686.32,806.69zm0 119.59c-262.76,274.28 -493.13,545.53 -686.32,806.7 93.28,40.62 192.86,79.52 298.28,116.47 512.11,179.49 1159.55,311.71 1884.51,376.44 -566.12,-420.5 -1071.22,-863.01 -1496.47,-1299.6z"/>
   <path class="fil4" d="M4105.92 12623.21l35.87 -11.09c14.16,-4.38 22.83,-9.54 26.2,-15.53 3.35,-5.98 2.61,-16.81 -2.2,-32.38l-51.81 -167.62 -188.9 58.38 51.81 167.61c4.73,15.35 10.31,24.56 16.72,27.64 6.43,3.1 16.79,2.5 31.17,-1.95l35.52 -10.97 11.66 37.77 -271.59 83.94 -11.67 -37.77 36.25 -11.21c14.36,-4.44 23.18,-9.62 26.54,-15.61 3.34,-5.99 2.61,-16.81 -2.21,-32.38l-112.9 -365.32c-4.82,-15.58 -10.3,-24.93 -16.65,-28.2 -6.33,-3.24 -16.57,-2.68 -30.71,1.7l-36.25 11.19 -11.45 -37.04 271.6 -83.96 11.44 37.06 -35.52 10.98c-14.14,4.38 -23.02,9.72 -26.61,16.19 -3.6,6.44 -2.97,17.31 1.75,32.62l46.78 151.36 188.9 -58.38 -46.78 -151.35c-4.81,-15.56 -10.31,-24.93 -16.66,-28.17 -6.34,-3.25 -16.46,-2.73 -30.35,1.57l-35.88 11.09 -11.45 -37.05 271.59 -83.92 11.45 37.04 -36.47 11.27c-14.02,4.32 -22.67,9.62 -26.09,15.87 -3.4,6.25 -2.65,17.1 2.17,32.65l112.91 365.32c4.81,15.57 10.29,24.94 16.44,27.99 6.16,3.06 16.34,2.39 30.5,-2l36.47 -11.27 11.67 37.77 -271.59 83.94 -11.66 -37.77zm675.9 -677.44c102.98,-20.91 184.56,-14.66 244.79,18.79 60.23,33.58 99.24,94.42 117.16,182.66 17.02,83.83 5.71,153.64 -33.8,209.63 -39.52,55.99 -103.94,93.06 -193.12,111.18l-286.12 58.12 -7.87 -38.75 39.24 -7.98c14.74,-2.97 24.23,-7.45 28.39,-13.23 4.13,-5.8 4.62,-16.55 1.43,-32.29l-76.11 -374.58c-3.25,-15.96 -7.93,-25.91 -14.03,-29.77 -6.11,-3.83 -16.62,-4.24 -31.34,-1.24l-39.23 7.96 -7.73 -38.01 258.33 -52.5zm-35.27 82.42l77.44 381.17c2.7,13.3 6.7,21.85 12.02,25.48 5.3,3.61 14.65,4 27.91,1.3l50.34 -10.22c48.26,-9.8 79.36,-34.02 93.16,-72.87 13.98,-38.74 12.77,-98.38 -3.56,-178.82 -17.14,-84.3 -40.72,-140.42 -70.64,-168.47 -29.97,-28.05 -74.94,-35.93 -135.14,-23.7l-25.35 5.16c-13.29,2.68 -21.7,6.82 -25.15,12.33 -3.46,5.54 -3.79,15.12 -1.04,28.64zm496.64 380.14l-5.91 -39.09 36.77 -5.57c14.87,-2.25 24.45,-6.21 28.9,-11.77 4.44,-5.6 5.44,-16.31 3.06,-32.18l-57.11 -377.93c-2.44,-16.11 -6.61,-26.3 -12.51,-30.45 -5.93,-4.14 -16.26,-5.08 -31.12,-2.84l-36.77 5.55 -5.78 -38.34 480.97 -72.68 34.9 190.91 -36.15 5.45c-21.47,-54.73 -48.39,-91.41 -80.53,-110.21 -32.25,-18.62 -77.03,-23.7 -134.44,-15.02 -24.22,3.66 -38.84,8.53 -43.97,14.45 -5.14,5.94 -6.47,17.07 -4,33.44l24.21 160.22 10.45 -1.6c31.84,-4.81 54.55,-16.05 67.86,-33.65 13.45,-17.61 20.5,-45.84 21.27,-84.7l36.9 -5.59 36.9 244.19 -36.9 5.57c-12.16,-36.37 -27.2,-61.03 -45.23,-73.89 -17.91,-12.87 -42.94,-16.9 -74.77,-12.09l-10.47 1.58 26.88 177.91c2.49,16.36 7.33,26.69 14.49,30.89 7.07,4.23 23.07,4.44 47.76,0.71 62.6,-9.46 107.54,-29.09 134.76,-58.6 27.37,-29.53 43.66,-75.76 48.87,-138.56l37.31 -2.73 20.51 201.52 -497.09 75.12zm1053.48 -134.44l-495.4 53.41 -4.23 -39.29 37.71 -4.07c14.96,-1.62 24.69,-5.17 29.37,-10.54 4.67,-5.38 6.16,-16.06 4.43,-32l-40.97 -380.17c-1.76,-16.32 -5.37,-26.69 -10.97,-30.97 -5.58,-4.27 -15.86,-5.67 -30.56,-4.07l-38.35 4.11 -4.15 -38.55 293.75 -31.67 4.17 38.57 -46.6 5.03c-14.72,1.58 -24.46,5.14 -29.23,10.78 -4.77,5.64 -6.24,16.43 -4.52,32.36l40.75 377.97c1.72,15.92 5.82,26.25 12.43,30.68 6.59,4.41 22.7,5.17 48.29,2.41 59.85,-6.44 103.63,-23.66 131.23,-51.78 27.64,-27.98 45.41,-73.17 53.31,-135.45l37.49 -0.41 12.06 203.67zm460.53 -113.32c1.13,16 4.22,26.25 9.26,30.77 5.05,4.49 15.05,6.29 30.05,5.25l46.77 -3.28 2.76 39.44 -294.72 20.67 -2.77 -39.44 39.95 -2.81c14.99,-1.05 24.98,-4.23 29.86,-9.44 4.87,-5.2 6.74,-15.81 5.61,-31.82l-26.73 -381.43c-1.16,-16.24 -4.5,-26.6 -10.04,-31.22 -5.57,-4.6 -15.91,-6.37 -30.92,-5.3l-39.95 2.8 -2.7 -38.69 328.21 -23.02c67.08,-4.7 118.87,4.63 155.42,28.11 36.42,23.51 56.45,60.23 59.94,110.11 3.7,52.59 -13.79,92.95 -52.33,121.07 -38.53,28.14 -99.79,45.16 -183.89,51.04 -19.36,1.37 -34.25,2.3 -44.68,2.9 -10.42,0.6 -20.23,1.16 -29.43,1.57l10.33 152.71zm-26.21 -373.76l12.5 178.25c4.92,0.66 10.41,1.03 16.52,0.96 6.1,-0.04 13.06,-0.41 21.13,-0.96 53.95,-3.78 90.44,-14.84 109.61,-33.13 19.16,-18.19 27.26,-48.52 24.28,-90.95 -2.91,-41.56 -13.89,-70.32 -33.1,-86.17 -19.06,-15.76 -51.16,-22.12 -96.19,-18.96 -25.43,1.78 -41.24,5.64 -47.54,11.68 -6.2,6.04 -8.64,19.19 -7.21,39.27zm689.97 418.72l-1.4 -38.76 36.7 -3.95c7.2,-0.4 12.48,-2.07 15.62,-4.91 3.25,-2.75 4.71,-7.03 4.5,-12.88 -0.08,-2.23 -0.53,-4.82 -1.39,-7.78 -0.85,-3.08 -2.4,-7.25 -4.45,-12.78l-36.56 -82.17 -190.99 6.89 -15.74 39.91c-2.26,6.18 -3.89,12.69 -5.13,19.71 -1.24,7 -1.64,13.24 -1.43,18.82 0.57,16.06 6.7,27.28 18.63,33.82 11.95,6.41 32.34,9.64 61.2,9.61l1.4 38.76 -211.73 7.65 -1.41 -38.77c20.51,-4.1 37.7,-13.93 51.56,-29.24 13.9,-15.32 27.55,-40.07 40.89,-74.39l159.97 -413.9 55.67 -2.02 222.87 468.64c5.51,11.23 11.77,18.85 18.63,23.11 6.98,4.08 17.65,6.31 31.99,6.81l1.39 38.76 -250.77 9.06zm-87.68 -388.03l-71.64 183.98 151.74 -5.48 -80.11 -178.5zm560.56 117.54l0.41 180.55c0.04,15.06 2.6,25.36 7.58,30.69 5.13,5.33 15.19,8.01 30.25,7.97l40.29 -0.17 0.18 39.53 -287.99 1.2 -0.18 -39.53 40.04 -0.17c15.29,-0.04 25.49,-2.85 30.57,-8.21 5.07,-5.37 7.62,-15.7 7.56,-30.76l-1.62 -382.24c-0.06,-15.29 -2.73,-25.6 -7.97,-31.04 -5.25,-5.44 -15.45,-8.16 -30.49,-8.08l-40.06 0.17 -0.16 -38.79 329.14 -1.4c65.77,-0.28 115.69,11.08 149.74,34.17 34.05,23 51.22,56.86 51.42,101.51 0.17,39.66 -14.36,71.17 -43.49,94.55 -29.13,23.53 -69.86,36.25 -122.33,38.46l0.4 5.1c27.11,0.64 50.66,8.86 70.48,24.82 19.85,15.95 34.61,38.52 44.43,67.82 4.91,15 10,35.89 15.19,62.61 7.27,38.76 18.29,58.12 33.07,58.06 10.21,-0.04 17.89,-5.92 22.94,-17.77 5.05,-11.82 7.71,-30.25 8.1,-55.49l38.04 -0.17 0.01 5.72c0.19,41.8 -10.63,74.28 -32.39,97.27 -21.67,23.09 -52.33,34.66 -91.62,34.82 -26.74,0.13 -49.15,-4.01 -67.46,-12.39 -18.2,-8.51 -31.93,-21 -40.95,-37.74 -9.78,-18.11 -14.88,-46.94 -15.29,-86.23 -0.06,-12.82 -0.36,-22.64 -0.87,-29.48 -2.81,-44.36 -11.52,-73.32 -25.87,-86.54 -14.49,-13.25 -41.63,-19.85 -81.54,-19.69 -7.83,0.04 -13.81,0.07 -17.89,0.2 -4.1,0.17 -8.08,0.42 -11.68,0.68zm-0.86 -200.2l0.69 160.66c4.1,0.47 8.34,0.84 12.56,1.06 4.24,0.22 10.45,0.34 18.78,0.31 56.59,-0.26 95.83,-8.12 118.03,-23.65 22.18,-15.52 33.15,-42.16 32.98,-80.1 -0.16,-36.68 -9.48,-62.52 -27.81,-77.35 -18.33,-14.85 -51.07,-22.16 -97.84,-21.97 -25.22,0.13 -41.15,2.54 -47.72,7.31 -6.56,4.75 -9.75,16.07 -9.67,33.72zm610.67 201.65l-2.4 180.52c-0.17,15.06 2.21,25.41 7.13,30.81 5.03,5.38 15.05,8.25 30.1,8.43l40.29 0.44 -0.44 39.55 -287.97 -3.26 0.45 -39.53 40.03 0.46c15.29,0.17 25.52,-2.46 30.68,-7.74 5.15,-5.29 7.88,-15.59 8.04,-30.65l4.31 -382.22c0.17,-15.29 -2.33,-25.62 -7.49,-31.16 -5.17,-5.53 -15.32,-8.39 -30.36,-8.56l-40.04 -0.45 0.43 -38.78 329.12 3.7c65.78,0.74 115.53,12.88 149.19,36.5 33.7,23.53 50.36,57.66 49.85,102.29 -0.45,39.66 -15.46,70.95 -44.96,93.87 -29.49,23.04 -70.41,35.14 -122.9,36.54l0.31 5.11c27.11,1.06 50.51,9.64 70.11,25.9 19.57,16.28 33.99,39.06 43.37,68.54 4.67,15.07 9.41,36.03 14.2,62.83 6.67,38.86 17.39,58.39 32.18,58.54 10.21,0.13 17.97,-5.62 23.2,-17.39 5.23,-11.75 8.18,-30.12 8.95,-55.35l38.05 0.42 -0.06 5.72c-0.47,41.8 -11.78,74.12 -33.91,96.73 -22.04,22.78 -52.86,33.87 -92.16,33.42 -26.74,-0.28 -49.05,-4.77 -67.25,-13.43 -18.06,-8.78 -31.6,-21.51 -40.36,-38.38 -9.5,-18.27 -14.14,-47.16 -13.95,-86.45 0.14,-12.82 0,-22.64 -0.43,-29.47 -2.08,-44.43 -10.37,-73.5 -24.49,-86.97 -14.28,-13.46 -41.32,-20.48 -81.23,-20.93 -7.83,-0.1 -13.81,-0.17 -17.92,-0.07 -4.1,0.07 -8.08,0.27 -11.68,0.49zm2.26 -200.21l-1.8 160.66c4.08,0.53 8.31,0.96 12.53,1.26 4.23,0.3 10.44,0.5 18.76,0.6 56.59,0.64 95.98,-6.64 118.39,-21.82 22.43,-15.16 33.81,-41.64 34.22,-79.56 0.43,-36.67 -8.49,-62.65 -26.6,-77.77 -18.1,-15.13 -50.73,-22.96 -97.5,-23.49 -25.2,-0.27 -41.17,1.91 -47.81,6.56 -6.64,4.65 -10.01,15.92 -10.2,33.57zm732.07 482.17l1.62 -38.76 36.91 -1.05c7.19,0.18 12.6,-1.09 15.94,-3.7 3.48,-2.45 5.27,-6.6 5.51,-12.46 0.1,-2.23 -0.17,-4.85 -0.77,-7.87 -0.63,-3.12 -1.82,-7.41 -3.43,-13.09l-30.02 -84.78 -190.96 -8.08 -18.79 38.53c-2.74,6 -4.88,12.35 -6.66,19.26 -1.79,6.9 -2.67,13.09 -2.92,18.69 -0.68,16.01 4.55,27.68 15.95,35.13 11.38,7.32 31.48,12.17 60.24,14.39l-1.62 38.76 -211.7 -8.96 1.64 -38.76c20.74,-2.49 38.66,-10.95 53.69,-25.12 15.05,-14.17 30.58,-37.79 46.57,-70.94l191.91 -400.11 55.66 2.35 185.48 484.64c4.61,11.66 10.25,19.73 16.76,24.49 6.65,4.64 17.1,7.68 31.36,9.29l-1.64 38.76 -250.7 -10.61zm-57.04 -393.7l-85.81 177.81 151.71 6.44 -65.9 -184.25zm818.84 443.44l-496.89 -36.93 2.92 -39.43 37.84 2.81c14.99,1.13 25.21,-0.61 30.8,-5.05 5.56,-4.47 8.92,-14.69 10.12,-30.69l28.32 -381.33c1.22,-16.36 -0.45,-27.21 -5.19,-32.43 -4.72,-5.21 -14.57,-8.43 -29.33,-9.55l-38.45 -2.85 2.87 -38.69 294.65 21.9 -2.87 38.67 -46.77 -3.48c-14.75,-1.08 -24.98,0.64 -30.67,5.34 -5.73,4.68 -9.11,15.05 -10.3,31.02l-28.15 379.11c-1.2,15.99 0.97,26.87 6.68,32.41 5.69,5.54 21.4,9.18 47.04,11.11 60.03,4.45 106.22,-4.58 138.45,-27.26 32.22,-22.54 57.86,-63.77 76.87,-123.6l36.95 6.38 -24.9 202.52zm797.04 -101.9c-19.86,62 -51.85,107.7 -95.63,136.83 -43.83,29.16 -97.57,40.33 -161.01,33.45 -31.87,-3.46 -61.2,-11.02 -88.08,-22.69 -26.74,-11.78 -50.55,-27.37 -71.45,-47.02 -32.29,-30.9 -55.42,-66.79 -69.47,-107.99 -13.93,-41.02 -18.33,-85.65 -13.12,-133.74 4.06,-37.46 13.79,-71.81 29.33,-103.13 15.53,-31.22 36.4,-58.96 62.65,-83.01 28.98,-26.13 61.23,-44.39 96.77,-54.91 35.4,-10.42 75.09,-13.25 119.11,-8.48 26.83,2.91 51.2,8.92 73.34,18.23 22.12,9.28 42.12,22.07 60.13,38.15l45.47 -33.95 31.15 3.37 -12.92 217.12 -38.02 -1.27c-9.26,-62.26 -26.89,-110.6 -52.59,-144.79 -25.67,-34.16 -59.23,-53.43 -100.4,-57.9 -48.58,-5.3 -85.97,9.55 -112.28,44.6 -26.19,35.03 -43.87,94.16 -52.88,177.38 -9.28,85.28 -4.21,147.24 14.96,186.09 19.3,38.87 55.63,61.19 109.17,67.01 41.56,4.51 78.23,-5.29 110.25,-29.44 31.88,-24.06 57.57,-61.29 76.91,-111.61l38.6 17.69zm370.59 198.58l37.16 5.44c14.66,2.15 24.71,1.24 30.31,-2.73 5.61,-3.95 9.61,-14.05 11.96,-30.17l25.46 -173.59 -195.64 -28.65 -25.44 173.58c-2.32,15.88 -1.26,26.58 3.2,32.15 4.48,5.55 14.07,9.48 28.98,11.65l36.77 5.4 -5.75 39.11 -281.24 -41.21 5.74 -39.12 37.52 5.5c14.89,2.18 25.08,1.28 30.68,-2.67 5.59,-3.97 9.61,-14.06 11.96,-30.18l55.45 -378.33c2.37,-16.1 1.41,-26.91 -2.9,-32.59 -4.31,-5.66 -13.79,-9.55 -28.44,-11.71l-37.53 -5.49 5.63 -38.39 281.25 41.21 -5.63 38.38 -36.77 -5.38c-14.65,-2.16 -24.99,-1.15 -31,3.14 -6.04,4.25 -10.16,14.33 -12.47,30.2l-22.97 156.75 195.63 28.68 22.96 -156.76c2.37,-16.11 1.43,-26.91 -2.9,-32.6 -4.33,-5.65 -13.68,-9.53 -28.08,-11.65l-37.16 -5.44 5.63 -38.37 281.25 41.21 -5.63 38.38 -37.74 -5.53c-14.52,-2.14 -24.6,-1.1 -30.37,3.09 -5.78,4.19 -9.76,14.27 -12.12,30.39l-55.45 378.33c-2.37,16.1 -1.41,26.94 2.81,32.33 4.24,5.4 13.73,9.17 28.38,11.34l37.78 5.52 -5.76 39.13 -281.23 -41.21 5.73 -39.13zm698.9 -385.97l-7.28 38.1 -41.89 -7.99c-14.29,-2.73 -24.41,-2.11 -30.35,1.8 -5.94,3.95 -10.51,13.96 -13.56,29.98l-71.61 375.46c-3.06,16 -2.58,26.84 1.41,32.43 4,5.58 13.32,9.76 27.86,12.53l41.9 8 -7.4 38.82 -288.03 -54.94 7.41 -38.83 40.42 7.71c14.79,2.82 25.14,2.27 31.05,-1.54 5.91,-3.81 10.45,-13.58 13.45,-29.35l71.62 -375.46c3.04,-16 2.46,-27 -1.6,-32.85 -4.07,-5.84 -13.5,-10.16 -28.29,-12.98l-40.42 -7.71 7.28 -38.1 288.02 54.93zm265.79 565.75l36.71 7.93c14.46,3.13 24.56,2.9 30.44,-0.67 5.84,-3.57 10.52,-13.38 13.97,-29.31l37.05 -171.48 -193.24 -41.78 -37.06 171.48c-3.39,15.68 -3.06,26.47 1.02,32.29 4.09,5.86 13.39,10.41 28.13,13.59l36.33 7.86 -8.36 38.64 -277.86 -60.08 8.38 -38.64 37.06 8.03c14.71,3.17 24.93,2.95 30.78,-0.62 5.86,-3.57 10.52,-13.37 13.96,-29.29l80.8 -373.74c3.46,-15.92 3.24,-26.77 -0.68,-32.72 -3.93,-5.94 -13.12,-10.47 -27.58,-13.6l-37.08 -8 8.19 -37.92 277.84 60.07 -8.19 37.9 -36.33 -7.85c-14.46,-3.13 -24.83,-2.82 -31.14,1.06 -6.29,3.84 -11.09,13.62 -14.49,29.29l-33.46 154.84 193.24 41.76 33.48 -154.84c3.44,-15.9 3.25,-26.77 -0.7,-32.72 -3.93,-5.94 -13,-10.43 -27.23,-13.52l-36.71 -7.93 8.2 -37.92 277.86 60.07 -8.21 37.92 -37.29 -8.08c-14.35,-3.1 -24.48,-2.74 -30.52,1.04 -6.03,3.8 -10.7,13.6 -14.12,29.51l-80.82 373.74c-3.44,15.92 -3.25,26.78 0.61,32.46 3.86,5.67 13.11,10.08 27.57,13.21l37.3 8.07 -8.36 38.63 -277.84 -60.07 8.37 -38.63z"/>
   <path class="fil4" d="M262.93 13151.03c-15.34,4.73 -24.63,10.07 -27.86,16.02 -3.26,5.94 -2.73,16.05 1.71,30.45l13.82 44.78 -37.77 11.65 -87.1 -282.32 37.79 -11.65 11.79 38.26c4.44,14.39 9.82,23.38 16,26.95 6.17,3.56 16.92,2.97 32.26,-1.75l365.38 -112.71c15.58,-4.81 24.9,-10.41 28.11,-16.86 3.22,-6.47 2.6,-16.93 -1.84,-31.32l-11.79 -38.26 37.06 -11.43 96.96 314.4c19.83,64.28 22.5,116.82 7.94,157.73 -14.6,40.83 -45.84,68.67 -93.61,83.4 -50.37,15.55 -93.65,7.7 -129.82,-23.45 -36.14,-31.14 -66.63,-86.94 -91.5,-167.5 -5.71,-18.55 -9.99,-32.82 -12.95,-42.85 -2.94,-10 -5.72,-19.43 -8.2,-28.3l-146.38 44.76zm358 -110.43l-170.73 52.66c0.48,4.94 1.36,10.38 2.82,16.31 1.42,5.92 3.37,12.63 5.75,20.34 15.96,51.69 34.99,84.72 57.16,99.22 22.05,14.53 53.46,15.53 94.09,2.99 39.8,-12.28 65.31,-29.51 76.41,-51.81 11,-22.13 9.89,-54.85 -3.4,-97.97 -7.51,-24.37 -14.86,-38.9 -22.19,-43.66 -7.29,-4.65 -20.65,-4.05 -39.9,1.9zm17.97 513.9c-64.78,50.17 -106.02,95.82 -123.84,136.98 -17.92,41.24 -13.12,79.51 14.45,115.1 27.18,35.12 63.24,49.18 108.18,42.2 45.03,-7.03 99.4,-35.3 163.39,-84.87 64.7,-50.12 106.05,-95.82 123.9,-137.16 17.83,-41.34 13.05,-79.77 -14.43,-115.28 -27.41,-35.39 -63.46,-49.45 -108.13,-42.37 -44.71,7.08 -99.19,35.6 -163.52,85.4zm-91.35 -117.97c31.65,-24.52 64.92,-42.1 99.69,-52.82 34.96,-10.73 70.21,-14.13 106.09,-10.28 37.77,3.92 72.32,15.23 103.73,33.83 31.43,18.46 60.18,44.61 86.39,78.43 27.1,34.99 45.53,69.8 55.39,104.64 9.85,34.68 11.85,71.36 5.86,110.11 -5.23,34.88 -17.41,67.73 -36.46,98.54 -19.01,30.9 -44.33,58.53 -75.8,82.9 -32.62,25.28 -64.81,42.81 -96.44,52.53 -31.47,9.74 -65.6,12.58 -102.16,8.65 -39.78,-4.25 -76.26,-15.63 -109.35,-34.37 -33.15,-18.85 -62.33,-44.52 -87.6,-77.15 -25.74,-33.24 -43.37,-67.41 -52.99,-102.56 -9.44,-35.16 -11.22,-72.79 -5.07,-112.78 5.05,-37.1 16.26,-69.97 33.62,-98.71 17.39,-28.72 42.47,-55.67 75.09,-80.94zm509.54 601.27l-111.84 141.75c-9.29,11.83 -13.69,21.48 -13.09,28.76 0.69,7.36 6.91,15.73 18.75,25.03l31.68 24.88 -24.43 31.09 -226.45 -177.9 24.43 -31.09 31.48 24.72c12,9.44 21.74,13.59 29.04,12.54 7.31,-1.06 15.73,-7.55 25.02,-19.39l236.13 -300.59c9.44,-12.01 13.79,-21.76 13.06,-29.29 -0.73,-7.52 -7.05,-15.97 -18.87,-25.25l-31.5 -24.73 23.97 -30.5 258.84 203.31c51.72,40.65 83.78,80.53 96.12,119.79 12.4,39.19 4.84,76.39 -22.74,111.51 -24.5,31.19 -55.48,46.85 -92.82,47.08 -37.44,0.34 -77.26,-14.99 -119.76,-45.84l-2.86 4.26c20.86,17.33 34.21,38.39 39.83,63.22 5.64,24.82 3.2,51.68 -7.31,80.75 -5.48,14.83 -14.47,34.33 -26.98,58.5 -18.4,34.89 -21.77,56.91 -10.15,66.04 8.04,6.3 17.69,6.47 29.01,0.32 11.31,-6.14 24.83,-18.92 40.82,-38.46l29.91 23.51 -3.53 4.49c-25.82,32.87 -54.46,51.62 -85.81,56.1 -31.33,4.62 -62.54,-5.34 -93.44,-29.61 -21.01,-16.53 -36.02,-33.66 -45.17,-51.62 -8.96,-17.96 -11.97,-36.29 -8.65,-55 3.6,-20.29 17.5,-46.04 41.59,-77.09 7.92,-10.08 13.79,-17.96 17.61,-23.63 25.37,-36.52 36.52,-64.61 33.5,-83.91 -3.13,-19.39 -20.29,-41.4 -51.7,-66.07 -6.15,-4.84 -10.84,-8.52 -14.13,-10.97 -3.33,-2.42 -6.6,-4.69 -9.58,-6.72zm123.67 -157.45l-99.26 126.36c2.93,2.91 6.01,5.82 9.18,8.62 3.17,2.83 8,6.77 14.54,11.91 44.5,34.95 80.16,53.16 107.2,54.77 27.01,1.62 52.16,-12.46 75.59,-42.29 22.65,-28.83 31.39,-54.85 26.24,-77.89 -5.14,-23.03 -26.27,-49.1 -63.04,-77.99 -19.83,-15.58 -33.82,-23.56 -41.92,-23.92 -8.1,-0.34 -17.63,6.56 -28.54,20.43zm718.75 344.04l-14.57 35.95 -34.46 -13.99c-13.95,-5.66 -24.26,-7.04 -31.01,-4.26 -6.76,2.76 -13.15,11.55 -19.13,26.3l-102.55 252.55c-18.76,46.22 -22.68,83.67 -11.91,112.33 10.76,28.78 37.25,51.76 79.54,68.92 18.44,7.5 36.39,11.82 54,13.08 17.61,1.25 33.42,-0.67 47.53,-5.66 17.26,-6.15 31.91,-16.84 44.13,-32.03 12.25,-15.29 26.78,-43.86 43.9,-86.03l73.59 -181.23c12.25,-30.18 15.33,-52.97 9.14,-68.49 -6.17,-15.51 -22.59,-28.65 -49.21,-39.43l-4.71 -1.92 14.57 -35.94 190.1 77.18 -14.57 35.92c-26.27,-7.98 -46.54,-8.68 -60.83,-1.87 -14.31,6.82 -27.24,24.5 -38.85,53.06l-76.06 187.36c-16.08,39.63 -29.5,67.34 -40.31,83.36 -10.84,15.84 -23.45,28.71 -37.91,38.56 -27.87,19.4 -59.4,29.28 -94.77,29.82 -35.2,0.47 -75.58,-8.54 -120.87,-26.94 -67.74,-27.5 -113.2,-62.33 -136.35,-104.46 -23.16,-42.14 -23.49,-90.86 -0.99,-146.29l110.34 -271.79c5.98,-14.75 7.52,-25.54 4.61,-32.2 -2.91,-6.71 -11.26,-12.92 -25.21,-18.58l-35.13 -14.27 14.6 -35.92 263.36 106.91zm219.87 658.35l5.84 -38.35c30.67,1.77 52.46,-2.7 65.28,-13.35 12.79,-10.49 21.89,-33.89 27.41,-70.15l48.75 -320.11 -11.8 -16.51c-8.17,-12.57 -15.92,-21.03 -23.33,-25.31 -7.26,-4.26 -16.99,-7.38 -28.94,-9.2l-7.96 -1.2 5.82 -38.34 185.88 28.29 230.5 374.59 30.33 -199.15c5.8,-38.1 3.6,-64.23 -6.58,-78.37 -10.2,-14.01 -32.49,-23.8 -66.85,-29.31l5.45 -38.4 217.23 33.1 -5.84 38.35c-29.98,-3.07 -51.17,0.62 -63.47,11.33 -12.32,10.71 -21.23,34.49 -26.84,71.38l-62.03 407.25 -46.47 -7.08 -284.72 -464.45 -41.19 270.44c-5.62,37.01 -3.39,62.74 6.81,77.51 10.1,14.63 31.56,24.92 64.23,30.93l-5.84 38.35 -211.68 -32.25zm886.55 81.3l-7.61 -38.79 36.49 -7.18c14.75,-2.91 24.14,-7.28 28.34,-13.05 4.18,-5.78 4.72,-16.53 1.62,-32.27l-73.76 -375.07c-3.14,-15.98 -7.75,-25.97 -13.85,-29.85 -6.08,-3.88 -16.44,-4.37 -31.19,-1.47l-36.5 7.18 -7.48 -38.08 477.3 -93.86 43.29 189.18 -35.88 7.07c-23.87,-53.72 -52.38,-89.18 -85.31,-106.54 -33.05,-17.18 -78.01,-20.27 -134.99,-9.07 -24.04,4.73 -38.42,10.22 -43.29,16.38 -4.87,6.16 -5.72,17.36 -2.51,33.59l31.25 158.97 10.37 -2.03c31.6,-6.22 53.78,-18.45 66.31,-36.62 12.67,-18.2 18.43,-46.71 17.52,-85.55l36.6 -7.2 47.66 242.31 -36.61 7.19c-13.76,-35.8 -29.86,-59.76 -48.45,-71.82 -18.48,-12.07 -43.63,-14.98 -75.24,-8.77l-10.37 2.04 34.73 176.57c3.19,16.23 8.47,26.32 15.82,30.2 7.22,3.91 23.23,3.42 47.74,-1.4 62.11,-12.2 106.17,-33.8 132.05,-64.48 26.04,-30.71 40.26,-77.61 42.7,-140.58l37.14 -4.4 29.41 200.42 -493.29 97.01zm635.18 -127.67l-70.41 -204.7 36.36 -11.23c37.87,50.11 77.85,84.75 120.15,103.69 42.19,19.1 84.97,21.89 128.34,8.5 31.13,-9.61 53.18,-24.63 66.41,-44.97 13.11,-20.32 15.75,-43.41 7.77,-69.19 -3.53,-11.41 -9.13,-21.15 -16.83,-29.17 -7.67,-8.02 -16.48,-13.78 -26.48,-17.06 -14.57,-4.62 -47.29,-5.17 -98.02,-1.74 -18.75,1.24 -33.32,2.1 -43.86,2.49 -68.55,3.99 -120.54,-2.57 -155.65,-19.71 -35.04,-17.02 -59.3,-47.01 -72.56,-89.92 -14.35,-46.44 -9.06,-89.98 15.8,-130.84 24.87,-40.87 64.03,-69.51 117.62,-86.07 24.12,-7.44 48.16,-11.36 72.2,-11.88 23.98,-0.38 48.32,2.64 72.99,9.2l25.09 -46.03 31.25 -9.64 66.8 185.52 -33.46 10.34c-42.24,-46.96 -80.96,-78.33 -115.99,-93.94 -35.13,-15.56 -71.08,-17.73 -108.03,-6.31 -30.17,9.34 -51.48,23.34 -64.01,42.16 -12.57,18.71 -15.02,40.17 -7.58,64.3 10.83,35.03 59.51,49.02 145.94,41.85 16.12,-1.34 28.28,-2.35 36.82,-2.92 41.23,-3.12 71.71,-3.4 91.26,-0.73 19.66,2.51 37.48,7.95 53.57,16.24 18.68,9.45 35.02,23.16 49.18,41.17 14.05,18.05 24.81,39.05 32.27,63.17 15.64,50.62 11.3,95.95 -12.9,136.08 -24.14,40.14 -64.81,68.98 -121.99,86.65 -30.16,9.32 -58.28,13.96 -84.31,13.93 -26.08,-0.14 -52.12,-4.83 -78.18,-14.24l-28.93 55.55 -30.65 9.45zm656.08 -313.07c5.69,14.99 11.57,23.93 17.7,26.82 6.14,2.87 16.22,1.71 30.28,-3.6l43.85 -16.54 13.98 36.97 -276.41 104.35 -13.96 -36.98 37.45 -14.16c14.07,-5.31 22.72,-11.22 25.91,-17.61 3.15,-6.38 1.92,-17.08 -3.76,-32.1l-135.05 -357.72c-5.73,-15.25 -11.9,-24.21 -18.54,-27.03 -6.67,-2.79 -17.07,-1.52 -31.15,3.77l-37.45 14.16 -13.69 -36.29 307.82 -116.2c62.93,-23.77 115.2,-29.67 156.93,-17.65 41.66,12.05 71.37,41.52 89.03,88.27 18.62,49.33 13.43,93.02 -15.39,131.01 -28.87,38 -82.66,71.88 -161.54,101.66 -18.14,6.85 -32.15,12.01 -41.97,15.58 -9.81,3.55 -19.03,6.92 -27.75,9.93l53.71 143.35zm-132.31 -350.52l63.1 167.17c4.9,-0.77 10.26,-2 16.1,-3.81 5.83,-1.79 12.39,-4.15 19.96,-7 50.61,-19.11 82.4,-40.14 95.52,-63.17 13.13,-22.91 12.2,-54.32 -2.84,-94.11 -14.71,-38.95 -33.48,-63.35 -56.41,-73.06 -22.78,-9.61 -55.37,-6.48 -97.59,9.45 -23.85,9 -37.89,17.24 -42.18,24.83 -4.2,7.57 -2.79,20.86 4.35,39.69zm618.36 -325.61l13.73 36.28 -39.9 15.12c-13.59,5.14 -21.9,10.95 -24.93,17.4 -2.98,6.47 -1.64,17.39 4.14,32.62l135.32 357.48c5.76,15.24 11.84,24.24 18.15,26.91 6.33,2.66 16.46,1.36 30.31,-3.88l39.9 -15.1 13.99 36.97 -274.23 103.81 -13.98 -36.97 38.48 -14.58c14.08,-5.32 22.6,-11.21 25.67,-17.56 3.04,-6.34 1.79,-17.03 -3.88,-32.05l-135.33 -357.48c-5.78,-15.23 -12,-24.3 -18.54,-27.16 -6.51,-2.84 -16.81,-1.6 -30.89,3.74l-38.51 14.54 -13.73 -36.27 274.23 -103.82zm375.35 165.53l56.26 171.57c4.73,14.29 10.33,23.31 16.72,26.83 6.51,3.47 16.93,2.93 31.22,-1.79l38.26 -12.64 12.41 37.56 -273.46 90.28 -12.41 -37.55 38.03 -12.56c14.52,-4.77 23.34,-10.59 26.51,-17.25 3.16,-6.68 2.4,-17.3 -2.31,-31.59l-119.86 -362.97c-4.77,-14.52 -10.51,-23.48 -17.18,-27.08 -6.66,-3.54 -17.21,-2.94 -31.48,1.77l-38.02 12.55 -12.17 -36.83 312.53 -103.2c62.48,-20.63 113.44,-25.27 152.97,-13.83 39.5,11.32 66.32,38.2 80.33,80.6 12.43,37.64 8.37,72.15 -12.1,103.37 -20.43,31.38 -55.22,56.09 -104.42,74.43l1.96 4.72c25.99,-7.8 50.9,-7.25 74.71,1.79 23.78,9.01 44.83,25.9 63.23,50.74 9.34,12.76 20.6,31.05 33.83,54.83 18.89,34.61 35.38,49.61 49.43,44.97 9.68,-3.2 15.17,-11.16 16.3,-23.98 1.14,-12.83 -2.04,-31.15 -9.48,-55.29l36.12 -11.93 1.79 5.44c13.1,39.67 12.9,73.92 -0.7,102.51 -13.47,28.65 -39.04,49.15 -76.35,61.48 -25.4,8.39 -47.96,11.37 -67.98,9.09 -19.95,-2.46 -36.85,-10.1 -50.61,-23.21 -14.92,-14.22 -28.68,-40.05 -41.23,-77.28 -4.03,-12.18 -7.33,-21.41 -9.95,-27.76 -16.4,-41.32 -33.63,-66.14 -51.39,-74.31 -17.88,-8.11 -45.72,-5.99 -83.62,6.53 -7.42,2.44 -13.12,4.31 -16.96,5.73 -3.85,1.4 -7.56,2.9 -10.91,4.24zm-62.77 -190.1l50.38 152.57c4.05,-0.81 8.18,-1.78 12.27,-2.88 4.08,-1.09 10.03,-2.9 17.94,-5.53 53.74,-17.74 88.64,-37.38 104.93,-59 16.3,-21.63 18.47,-50.36 6.58,-86.38 -11.51,-34.82 -28.36,-56.5 -50.38,-64.95 -22.03,-8.46 -55.44,-5.27 -99.83,9.38 -23.97,7.92 -38.35,15.16 -43.12,21.71 -4.77,6.54 -4.29,18.3 1.24,35.06zm730.39 -285.34l8.75 37.78 -41.57 9.63c-14.16,3.28 -23.17,7.92 -27.01,13.9 -3.84,6.01 -3.98,17.01 -0.3,32.89l86.21 372.38c3.69,15.88 8.5,25.61 14.41,29.11 5.91,3.48 16.12,3.55 30.55,0.2l41.57 -9.63 8.91 38.52 -285.67 66.15 -8.92 -38.53 40.1 -9.27c14.68,-3.4 23.92,-8.09 27.78,-13.98 3.87,-5.87 4.07,-16.64 0.46,-32.28l-86.21 -372.37c-3.67,-15.88 -8.64,-25.7 -14.74,-29.41 -6.07,-3.71 -16.44,-3.84 -31.12,-0.46l-40.08 9.28 -8.76 -37.79 285.65 -66.12zm638.62 128.18c-11.02,-51.63 -28.45,-91.38 -52.28,-119.27 -23.82,-28.03 -51.05,-40.79 -81.68,-38.33 -13.14,1.05 -21.74,4.36 -25.9,9.8 -4.18,5.47 -5.72,15.69 -4.53,30.7l31.12 386.21c1.29,15.99 4.71,26.21 10.18,30.64 5.51,4.41 15.73,6.08 30.84,4.88l36.44 -2.94 3.19 39.4 -281.87 22.7 -3.17 -39.4 37.43 -3.03c14.75,-1.18 24.36,-4.33 28.93,-9.44 4.58,-5.12 6.22,-15.84 4.92,-32.09l-31.1 -386.22c-1.24,-15.23 -4.27,-25.22 -9.14,-29.8 -4.87,-4.61 -13.75,-6.4 -26.65,-5.36 -30.48,2.46 -55.19,19.42 -74.22,50.9 -19.07,31.35 -29.9,73.38 -32.77,126.11l-37.19 3 -4.63 -203.22 490.33 -39.47 28.19 201.32 -36.44 2.92zm451.07 -175.16l-2.86 38.67 -37.08 -2.74c-15.01,-1.12 -25.24,0.74 -30.82,5.44 -5.59,4.69 -8.97,15.03 -10.17,30.9l-20.2 271.83c-3.71,49.73 4.03,86.6 23.07,110.58 19.06,24.09 51.31,37.84 96.82,41.22 19.86,1.48 38.29,0.1 55.43,-4.1 17.13,-4.21 31.61,-10.86 43.5,-19.96 14.55,-11.15 25.23,-25.81 32.21,-44.01 6.96,-18.3 12.06,-49.96 15.43,-95.33l14.49 -195.09c2.43,-32.5 -1.61,-55.1 -12.26,-67.99 -10.64,-12.89 -30.3,-20.33 -58.95,-22.47l-5.06 -0.38 2.87 -38.67 204.59 15.19 -2.87 38.7c-27.46,0.44 -46.96,5.99 -58.49,16.86 -11.53,10.85 -18.43,31.66 -20.71,62.41l-14.99 201.65c-3.16,42.63 -7.43,73.14 -12.82,91.69 -5.5,18.43 -13.53,34.52 -24.29,48.33 -20.58,27.01 -47.55,46.08 -81.07,57.43 -33.37,11.22 -74.56,15.02 -123.29,11.39 -72.92,-5.41 -126.84,-24.61 -161.82,-57.64 -34.94,-33.03 -50.19,-79.29 -45.75,-138.97l21.74 -292.52c1.17,-15.87 -0.66,-26.6 -5.48,-32.07 -4.83,-5.49 -14.68,-8.83 -29.68,-9.95l-37.82 -2.81 2.88 -38.7 283.45 21.09z"/>
   <path class="fil4" d="M7238.43 14435.17c35.5,54.58 50.72,108.24 45.61,160.6 -5.1,52.38 -30.39,101.09 -75.8,145.9 -22.83,22.53 -47.22,40.47 -73.27,53.94 -26.01,13.3 -53.15,21.9 -81.58,25.65 -44.35,5.51 -86.79,0.75 -127.58,-14.39 -40.6,-15.14 -77.98,-39.91 -111.96,-74.36 -26.46,-26.81 -46.94,-56.06 -61.4,-87.88 -14.39,-31.78 -22.69,-65.49 -24.74,-101.05 -1.94,-38.96 4.28,-75.49 18.59,-109.68 14.29,-34.02 37.18,-66.58 68.69,-97.66 19.2,-18.96 39.26,-34.04 60.45,-45.32 21.17,-11.29 43.73,-18.7 67.58,-22.5l2.41 -56.69 22.3 -22 160.11 147.22 -24.99 28.65c-54.12,-32.18 -102.71,-49.04 -145.44,-50.74 -42.73,-1.7 -78.86,12.15 -108.34,41.23 -34.79,34.32 -46.91,72.65 -36.38,115.21 10.62,42.45 45.26,93.49 104.05,153.06 60.27,61.08 111.45,96.31 153.68,106.02 42.34,9.61 82.61,-4.46 120.94,-42.29 29.73,-29.35 45.35,-63.95 46.86,-104.04 1.49,-39.93 -11.14,-83.34 -37.91,-130.13l38.11 -18.74zm283.06 -311.08l96.36 152.7c8.06,12.71 15.67,20.07 22.74,21.96 7.17,1.78 17.13,-1.29 29.86,-9.35l34.02 -21.59 21.17 33.41 -243.23 154.18 -21.18 -33.39 33.83 -21.45c12.9,-8.19 20.06,-15.96 21.51,-23.2 1.43,-7.25 -1.9,-17.34 -9.95,-30.06l-204.66 -322.85c-8.18,-12.92 -15.92,-20.24 -23.24,-22.07 -7.35,-1.8 -17.43,1.32 -30.12,9.38l-33.84 21.43 -20.75 -32.75 278.01 -176.23c55.56,-35.21 103.85,-52.15 144.97,-50.69 41.07,1.36 73.64,20.92 97.53,58.62 21.24,33.49 25.68,67.92 13.45,103.2 -12.18,35.41 -39.89,67.85 -83.13,97.62l3.04 4.1c23.29,-13.88 47.61,-19.43 72.89,-16.46 25.27,2.94 49.78,14.2 73.69,33.81 12.16,10.09 27.55,25.09 46.16,44.95 26.77,28.97 46.38,39.5 58.87,31.58 8.62,-5.47 12.01,-14.52 9.98,-27.23 -2,-12.72 -9.55,-29.72 -22.65,-51.31l32.13 -20.36 3.07 4.84c22.37,35.29 30.51,68.55 24.27,99.59 -6.07,31.09 -25.87,57.2 -59.07,78.22 -22.58,14.32 -43.75,22.74 -63.72,25.38 -19.93,2.47 -38.19,-0.81 -54.75,-10.19 -17.91,-10.15 -37.57,-31.85 -58.81,-64.9 -6.85,-10.83 -12.31,-18.99 -16.4,-24.5 -25.97,-36.09 -48.74,-55.98 -67.93,-59.54 -19.33,-3.53 -45.81,5.31 -79.53,26.69 -6.61,4.2 -11.65,7.4 -15.06,9.68 -3.38,2.32 -6.62,4.66 -9.53,6.78zm-107.17 -169.08l86 135.69c3.73,-1.78 7.52,-3.74 11.2,-5.78 3.71,-2.05 9.04,-5.28 16.05,-9.73 47.82,-30.3 76.86,-57.86 87.4,-82.8 10.53,-24.94 5.64,-53.34 -14.66,-85.37 -19.63,-30.98 -41.26,-47.9 -64.69,-50.71 -23.41,-2.84 -55.03,8.38 -94.52,33.41 -21.33,13.5 -33.49,24.02 -36.55,31.56 -3.02,7.51 0.3,18.8 9.77,33.72zm690.9 152.07l-10.5 -38.14 35.85 -9.86c14.5,-4 23.55,-9.07 27.31,-15.13 3.75,-6.06 3.49,-16.83 -0.79,-32.3l-101.46 -368.52c-4.31,-15.7 -9.66,-25.32 -16.01,-28.75 -6.37,-3.4 -16.75,-3.12 -31.24,0.87l-35.86 9.87 -10.3 -37.4 469 -129.13 57.26 185.43 -35.25 9.71c-27.81,-51.81 -58.87,-85.04 -93.02,-99.89 -34.23,-14.69 -79.29,-14.4 -135.28,1.03 -23.61,6.49 -37.56,13.04 -41.94,19.55 -4.4,6.48 -4.41,17.72 -0.02,33.67l43.02 156.2 10.17 -2.82c31.06,-8.53 52.28,-22.4 63.4,-41.44 11.26,-19.09 14.92,-47.94 11.11,-86.63l35.96 -9.89 65.56 238.09 -35.97 9.89c-16.38,-34.69 -34.24,-57.38 -53.69,-68.02 -19.31,-10.65 -44.61,-11.71 -75.66,-3.14l-10.21 2.81 47.77 173.48c4.4,15.94 10.42,25.62 18.03,28.95 7.51,3.35 23.42,1.69 47.51,-4.94 61.03,-16.81 103.33,-41.63 126.89,-74.15 23.67,-32.57 34.35,-80.4 32.12,-143.37l36.7 -7.16 44.26 197.67 -484.71 133.47zm952.36 -179.26l-3.34 -38.64 36.46 -5.78c7.16,-0.73 12.35,-2.68 15.34,-5.69 3.11,-2.89 4.38,-7.23 3.87,-13.06 -0.18,-2.23 -0.77,-4.8 -1.78,-7.71 -1.01,-3.04 -2.73,-7.14 -5.07,-12.55l-40.6 -80.25 -190.44 16.39 -13.73 40.63c-1.96,6.28 -3.26,12.88 -4.14,19.93 -0.9,7.07 -0.97,13.32 -0.5,18.9 1.37,15.99 8.05,26.9 20.28,32.82 12.24,5.82 32.78,8.03 61.62,6.56l3.32 38.63 -211.11 18.19 -3.32 -38.66c20.27,-5.12 36.94,-15.79 50.06,-31.78 13.11,-15.98 25.5,-41.38 37.1,-76.33l139.23 -421.34 55.51 -4.77 245.87 456.97c6.06,10.97 12.69,18.25 19.77,22.13 7.17,3.76 17.95,5.44 32.28,5.22l3.31 38.64 -249.98 21.52zm-106.87 -383.2l-62.4 187.33 151.28 -13.01 -88.88 -174.31zm808.92 -135.51c104.11,14.12 179.12,46.86 224.98,98.25 45.86,51.52 62.68,121.8 50.58,211.01 -11.46,84.76 -45.12,146.99 -100.85,186.86 -55.72,39.89 -128.76,53.71 -218.94,41.49l-289.33 -39.21 5.31 -39.18 39.67 5.38c14.91,2.01 25.34,0.91 31.17,-3.19 5.82,-4.09 9.82,-14.09 11.98,-30l51.32 -378.77c2.18,-16.16 1.02,-27.1 -3.48,-32.74 -4.52,-5.62 -14.26,-9.45 -29.18,-11.49l-39.68 -5.38 5.22 -38.44 261.21 35.4zm-60.41 66.23l-52.23 385.42c-1.82,13.45 -0.85,22.87 2.97,28.04 3.81,5.14 12.53,8.59 25.94,10.4l50.88 6.9c48.79,6.62 86.15,-6.03 111.96,-38.16 25.93,-32.01 44.42,-88.73 55.44,-170.04 11.56,-85.27 7.73,-146.02 -11.31,-182.36 -19.06,-36.33 -58.96,-58.56 -119.83,-66.81l-25.63 -3.48c-13.42,-1.82 -22.74,-0.69 -27.82,3.39 -5.08,4.07 -8.52,13.01 -10.38,26.7zm679.47 347.23c-25.14,78.01 -33.41,138.95 -24.87,182.99 8.51,44.14 34.09,73.04 76.92,86.84 42.27,13.62 79.94,4.87 113.12,-26.25 33.19,-31.25 62.08,-85.29 86.91,-162.35 25.11,-77.87 33.42,-138.94 24.82,-183.13 -8.64,-44.2 -34.29,-73.23 -77.02,-86.98 -42.59,-13.75 -80.32,-5 -113.18,26.08 -32.88,31.09 -61.77,85.38 -86.71,162.8zm-142.01 -45.76c12.29,-38.11 29.81,-71.39 52.44,-99.89 22.8,-28.58 49.98,-51.32 81.74,-68.38 33.39,-18.1 68.3,-28.29 104.73,-30.67 36.35,-2.52 74.86,2.84 115.58,15.97 42.13,13.58 77.02,31.88 104.8,55.06 27.71,23.05 50.06,52.2 67.01,87.59 15.37,31.7 23.88,65.71 25.57,101.88 1.77,36.25 -3.53,73.34 -15.75,111.21 -12.65,39.29 -29.32,71.94 -49.92,97.82 -20.49,25.81 -47.03,47.43 -79.45,64.83 -35.21,18.96 -71.76,30.17 -109.65,33.38 -37.99,3.17 -76.56,-1.56 -115.85,-14.21 -40.01,-12.9 -73.86,-31.13 -101.66,-54.71 -27.64,-23.68 -50.35,-53.74 -67.87,-90.23 -16.77,-33.48 -26.11,-66.93 -27.97,-100.44 -1.9,-33.55 3.58,-69.94 16.24,-109.22zm879.43 322.36l-67.88 167.31c-5.63,13.96 -7.18,24.44 -4.58,31.26 2.73,6.86 11.05,13.18 25,18.81l37.35 15.06 -14.77 36.69 -267.09 -107.74 14.79 -36.68 37.15 14.99c14.17,5.71 24.66,6.99 31.37,3.94 6.74,-3.07 13.01,-11.65 18.63,-25.61l143 -354.5c5.71,-14.17 7.16,-24.72 4.37,-31.76 -2.81,-7.04 -11.24,-13.38 -25.18,-19l-37.13 -14.98 14.5 -35.96 305.24 123.11c61.01,24.6 102.94,53.98 125.73,88.24 22.81,34.15 25.92,72 9.22,113.42 -14.85,36.76 -40.23,60.46 -76.01,71.1 -35.84,10.75 -78.38,7.14 -127.79,-10.65l-1.54 4.87c24.86,10.83 43.53,27.35 55.86,49.63 12.33,22.27 17.47,48.74 15.51,79.58 -1.14,15.77 -4.32,37 -9.62,63.73 -7.92,38.6 -5.04,60.7 8.68,66.22 9.45,3.83 18.8,1.29 27.94,-7.76 9.15,-9.07 18.57,-25.11 28.48,-48.34l35.28 14.23 -2.14 5.31c-15.64,38.76 -37.92,64.77 -66.77,77.79 -28.8,13.19 -61.54,12.32 -97.99,-2.38 -24.8,-10.01 -43.97,-22.28 -57.76,-36.96 -13.63,-14.76 -21.63,-31.53 -23.66,-50.42 -2.19,-20.49 3.99,-49.1 18.46,-85.62 4.8,-11.88 8.24,-21.1 10.32,-27.61 14.19,-42.14 17.06,-72.23 8.77,-89.92 -8.39,-17.74 -31.01,-34.11 -68.02,-49.04 -7.27,-2.93 -12.82,-5.17 -16.66,-6.59 -3.86,-1.4 -7.64,-2.67 -11.08,-3.78zm74.88 -185.68l-60.1 149c3.62,2 7.41,3.94 11.22,5.74 3.84,1.81 9.56,4.26 17.29,7.38 52.49,21.17 91.79,28.7 118.21,22.72 26.41,-5.98 46.63,-26.49 60.82,-61.68 13.72,-34.02 14.86,-61.44 3.49,-82.12 -11.36,-20.68 -38.91,-39.84 -82.27,-57.33 -23.4,-9.44 -39.06,-13.21 -46.94,-11.28 -7.86,1.93 -15.11,11.21 -21.71,27.57zm971.62 299.57l204.06 75.97 -13.81 37.03c-18.17,-6.76 -35.46,-8.4 -51.72,-5.06 -16.35,3.34 -33.68,12.42 -52.12,27.04l-184 148.15 -56.21 150.92c-5.58,15.03 -6.77,25.75 -3.58,32.1 3.2,6.38 11.79,12.22 25.88,17.46l43.23 16.11 -13.79 37.05 -281.08 -104.67 13.79 -37.04 41.83 15.58c14.11,5.25 24.42,6.44 31.01,3.71 6.59,-2.73 12.67,-11.61 18.27,-26.65l52.11 -139.94 -55.88 -265.1c-4.25,-21.36 -9.22,-35.8 -15.1,-43.54 -5.75,-7.74 -14.86,-13.91 -27.2,-18.51l-7.48 -2.77 13.54 -36.36 252.28 93.93 -13.54 36.35 -20.13 -7.49c-10.51,-3.91 -18.71,-5.37 -24.57,-4.23 -5.83,1.03 -9.87,4.81 -12.24,11.11 -1.94,5.23 0.02,24.54 6.1,57.72 6.05,33.32 16.96,84.21 32.67,152.82l107.12 -91.62c9.19,-7.98 15.87,-14.51 20.3,-19.63 4.3,-5.17 7.38,-9.87 8.98,-14.18 4.25,-11.42 3.65,-21.6 -1.84,-30.68 -5.39,-9.04 -15.45,-16.24 -30.25,-21.75l-20.17 -7.52 13.53 -36.33zm663.29 708.59l36.74 7.75c14.49,3.07 24.59,2.79 30.44,-0.82 5.84,-3.6 10.46,-13.42 13.82,-29.35l36.24 -171.68 -193.45 -40.83 -36.23 171.65c-3.31,15.72 -2.92,26.47 1.17,32.28 4.11,5.84 13.45,10.35 28.17,13.45l36.37 7.67 -8.16 38.7 -278.13 -58.72 8.17 -38.7 37.13 7.84c14.7,3.11 24.92,2.86 30.76,-0.74 5.84,-3.6 10.47,-13.42 13.84,-29.38l78.96 -374.12c3.35,-15.94 3.11,-26.78 -0.84,-32.72 -3.97,-5.91 -13.18,-10.4 -27.65,-13.45l-37.12 -7.84 8.01 -37.94 278.12 58.71 -8 37.95 -36.38 -7.67c-14.48,-3.07 -24.85,-2.7 -31.14,1.19 -6.28,3.88 -11,13.68 -14.33,29.36l-32.72 155.02 193.45 40.82 32.72 -154.99c3.37,-15.96 3.12,-26.79 -0.85,-32.72 -3.97,-5.93 -13.08,-10.39 -27.31,-13.39l-36.75 -7.76 8.03 -37.96 278.12 58.73 -8.02 37.95 -37.33 -7.88c-14.36,-3.04 -24.5,-2.63 -30.52,1.17 -6.01,3.83 -10.64,13.65 -13.99,29.59l-78.96 374.13c-3.37,15.92 -3.13,26.79 0.76,32.45 3.88,5.64 13.13,10.02 27.62,13.08l37.34 7.88 -8.16 38.68 -278.13 -58.69 8.17 -38.7zm681.69 -439.45l0.51 38.79 -37.17 0.48c-15.06,0.2 -25.1,2.95 -30.25,8.11 -5.16,5.16 -7.63,15.78 -7.41,31.68l3.55 272.56c0.66,49.85 11.58,85.87 32.63,108.13 21.08,22.34 54.4,33.22 100.04,32.62 19.89,-0.26 38.12,-3.24 54.84,-8.92 16.71,-5.67 30.55,-13.58 41.61,-23.66 13.52,-12.37 22.88,-27.91 28.24,-46.64 5.35,-18.84 7.66,-50.84 7.06,-96.32l-2.54 -195.61c-0.41,-32.58 -6.44,-54.76 -18.15,-66.67 -11.72,-11.89 -31.94,-17.6 -60.66,-17.23l-5.09 0.07 -0.5 -38.79 205.15 -2.67 0.51 38.79c-27.33,2.84 -46.27,10.05 -56.81,21.87 -10.54,11.82 -15.6,33.17 -15.19,64l2.64 202.17c0.57,42.77 -1.04,73.52 -4.75,92.46 -3.86,18.85 -10.48,35.58 -20,50.25 -18.15,28.73 -43.37,50.07 -75.77,64.28 -32.26,14.11 -72.95,21.48 -121.83,22.12 -73.1,0.96 -128.51,-13.49 -166.21,-43.34 -37.71,-29.85 -56.93,-74.62 -57.71,-134.44l-3.82 -293.29c-0.22,-15.9 -2.97,-26.45 -8.27,-31.48 -5.28,-5.05 -15.39,-7.5 -30.43,-7.32l-37.92 0.5 -0.5 -38.79 284.22 -3.72zm420.76 11.69l103.16 327.97c11.2,35.58 24.59,57.83 40.09,66.52 15.54,8.81 38.79,8.52 69.78,-0.69l11.85 37.71 -204.97 64.47 -11.85 -37.72c28.49,-10.52 46.21,-23.41 53.08,-38.86 6.91,-15.35 4.74,-40.84 -6.38,-76.21l-97.38 -309.6c-4.88,-15.53 -10.59,-24.95 -17.26,-28.32 -6.67,-3.38 -16.81,-2.93 -30.22,1.3l-36.18 11.38 -11.64 -37.01 229.66 -72.23 207.93 272.33 8.41 -340.39 225.61 -70.99 11.65 37.01 -35.7 11.23c-14.22,4.47 -22.97,9.84 -26.42,16.28 -3.47,6.42 -2.79,17.3 2.02,32.58l114.68 364.52c4.76,15.16 10.39,24.34 16.7,27.45 6.37,3.22 16.69,2.44 31.04,-2.05l35.71 -11.24 11.96 38.09 -265.47 83.5 -12 -38.08 31.93 -10.05c14.35,-4.5 23.25,-9.79 26.74,-16.09 3.54,-6.19 2.88,-16.94 -1.9,-32.12l-121.06 -384.92 -9.83 508.35 -35.58 11.19 -308.17 -405.31zm1081.75 73.11l-19.42 -33.57 30.57 -20.7c6.18,-3.71 10.05,-7.67 11.5,-11.65 1.59,-3.94 0.87,-8.41 -2.05,-13.47 -1.12,-1.94 -2.73,-4.01 -4.87,-6.22 -2.21,-2.32 -5.51,-5.3 -9.94,-9.21l-70.8 -55.43 -165.49 95.6 4.81 42.62c0.88,6.51 2.5,13.02 4.7,19.81 2.18,6.77 4.75,12.48 7.55,17.33 8.04,13.88 18.71,20.93 32.32,21.11 13.55,0.06 33.09,-6.63 58.56,-20.19l19.41 33.59 -183.47 105.99 -19.41 -33.57c16.2,-13.24 26.75,-29.98 31.86,-50 5.08,-20.04 5.54,-48.32 1.22,-84.87l-52.67 -440.61 48.24 -27.88 416.52 309.52c10.15,7.35 19.22,11.13 27.3,11.65 8.08,0.35 18.53,-2.67 31.42,-8.95l19.41 33.57 -217.26 125.53zm-259.34 -301.66l22.97 196.11 131.47 -75.97 -154.44 -120.14zm574.02 110.32l-25.88 -28.89c20.85,-22.54 31.28,-42.23 31.2,-58.88 0.03,-16.54 -12.24,-38.44 -36.73,-65.75l-216.06 -241.15 -20.27 -1.39c-14.88,-1.68 -26.36,-1.08 -34.35,1.91 -7.92,2.9 -16.51,8.44 -25.49,16.48l-6.01 5.38 -25.88 -28.88 140.03 -125.47 435.69 60.27 -134.44 -150.03c-25.72,-28.69 -47.26,-43.61 -64.65,-44.75 -17.3,-1.04 -39.03,9.93 -65.12,32.96l-26.16 -28.61 163.66 -146.64 25.88 28.89c-21.43,21.2 -32.05,39.89 -31.62,56.2 0.44,16.32 13.13,38.32 38.03,66.13l274.91 306.82 -34.99 31.35 -539.54 -75.55 182.55 203.73c24.96,27.87 46.28,42.53 64.15,44.04 17.69,1.5 39.29,-8.51 64.7,-29.91l25.89 28.88 -159.48 142.89zm372.27 -788c71.25,40.47 129.26,60.94 174.12,61.53 44.96,0.63 78.44,-18.53 100.65,-57.68 21.93,-38.61 21.01,-77.3 -2.71,-116.09 -23.86,-38.84 -70.89,-78.13 -141.28,-118.1 -71.15,-40.39 -129.27,-60.95 -174.28,-61.5 -45.03,-0.52 -78.66,18.7 -100.85,57.73 -22.08,38.93 -21.18,77.62 2.55,116.13 23.77,38.51 71.08,77.81 141.81,117.98zm-73.67 129.74c-34.81,-19.77 -63.86,-43.68 -87.17,-71.62 -23.34,-28.13 -40.08,-59.38 -50.34,-93.95 -10.94,-36.38 -13.82,-72.62 -8.74,-108.76 4.93,-36.12 17.99,-72.75 39.12,-109.95 21.84,-38.49 46.85,-68.91 75.21,-91.41 28.21,-22.45 61.29,-38.42 99.36,-47.84 34.22,-8.6 69.21,-10.03 104.99,-4.31 35.85,5.64 71.08,18.35 105.7,38.02 35.88,20.37 64.46,43.31 85.62,68.76 21.11,25.31 36.88,55.68 47.32,90.94 11.4,38.35 14.95,76.42 10.41,114.15 -4.63,37.85 -17.09,74.65 -37.46,110.57 -20.75,36.53 -45.49,65.97 -74.24,88.4 -28.79,22.25 -62.83,38.4 -102.1,48.12 -36.19,9.62 -70.85,11.96 -104.06,7 -33.19,-4.99 -67.72,-17.75 -103.61,-38.12z"/>
   <path class="fil4" d="M14431.44 4085.9c50.8,91.98 69.27,171.7 55.39,239.18 -14,67.52 -60.36,122.97 -139.17,166.5 -74.88,41.34 -144.88,51.47 -210.14,30.54 -65.25,-20.93 -119.91,-71.3 -163.91,-150.97l-141.15 -255.58 34.6 -19.12 19.36 35.05c7.28,13.18 14.36,20.9 21.14,23.13 6.77,2.21 17.18,-0.55 31.22,-8.31l334.6 -184.79c14.26,-7.87 22.36,-15.33 24.2,-22.3 1.83,-6.98 -0.91,-17.12 -8.19,-30.28l-19.36 -35.03 33.95 -18.76 127.45 230.75zm-89.19 -8.96l-340.47 188.04c-11.88,6.55 -18.86,12.96 -20.73,19.1 -1.84,6.15 0.58,15.17 7.14,27.02l24.81 44.97c23.81,43.1 56.24,65.53 97.42,67.07 41.16,1.73 97.7,-17.3 169.54,-56.97 75.32,-41.6 121.79,-80.91 139.59,-117.87 17.82,-36.96 11.84,-82.24 -17.86,-136l-12.51 -22.66c-6.54,-11.85 -13,-18.67 -19.31,-20.3 -6.3,-1.64 -15.55,0.91 -27.62,7.6zm-123.02 809.37l37.57 -12.32 11.61 35.34c4.7,14.28 10.21,23.07 16.44,26.51 6.23,3.46 16.98,2.67 32.22,-2.33l363.14 -119.27c15.49,-5.08 24.83,-10.89 27.94,-17.42 3.1,-6.51 2.3,-16.86 -2.38,-31.15l-11.59 -35.33 36.84 -12.11 151.79 462.16 -182.44 66.21 -11.4 -34.75c50.39,-30.27 82.06,-62.93 95.23,-97.76 13,-34.9 10.54,-79.9 -7.58,-135.06 -7.64,-23.26 -14.87,-36.89 -21.57,-40.96 -6.71,-4.07 -17.91,-3.54 -33.65,1.63l-153.92 50.56 3.3 10.03c10.05,30.59 24.92,51.12 44.5,61.31 19.6,10.31 48.61,12.55 87.06,6.85l11.64 35.45 -234.63 77.08 -11.63 -35.45c33.85,-18.06 55.64,-36.99 65.33,-56.93 9.72,-19.8 9.52,-45.14 -0.53,-75.73l-3.3 -10.06 -170.94 56.17c-15.73,5.15 -25.11,11.65 -28.05,19.41 -2.97,7.67 -0.53,23.47 7.26,47.21 19.76,60.15 46.6,101.19 80.23,123.13 33.68,22.04 81.96,30.42 144.76,25.1l8.92 36.33 -195.29 53.79 -156.88 -477.64zm392.39 1177.35c-15.91,2.14 -25.94,5.87 -30.12,11.18 -4.19,5.35 -5.33,15.42 -3.32,30.33l6.24 46.46 -39.18 5.28 -39.4 -292.8 39.18 -5.28 5.34 39.68c2.01,14.91 5.83,24.67 11.35,29.21 5.5,4.51 16.2,5.73 32.09,3.57l378.97 -50.99c16.14,-2.17 26.26,-6.18 30.51,-12.01 4.23,-5.84 5.32,-16.27 3.33,-31.18l-5.34 -39.67 38.42 -5.18 43.89 326.09c8.97,66.65 2.95,118.91 -18.17,156.88 -21.13,37.86 -56.53,60.17 -106.05,66.85 -52.25,7.01 -93.66,-7.85 -124.18,-44.53 -30.52,-36.64 -51.42,-96.72 -62.66,-180.27 -2.59,-19.22 -4.45,-34.02 -5.73,-44.39 -1.26,-10.37 -2.43,-20.11 -3.43,-29.27l-151.74 20.05zm371.3 -49.95l-177.08 23.81c-0.35,4.94 -0.37,10.46 0.09,16.54 0.43,6.09 1.24,13.01 2.31,21.02 7.22,53.62 20.56,89.32 40.05,107.28 19.35,17.97 50.16,24.13 92.31,18.46 41.28,-5.55 69.29,-18.36 83.89,-38.52 14.51,-20.02 18.79,-52.46 12.78,-97.2 -3.4,-25.26 -8.26,-40.79 -14.7,-46.71 -6.42,-5.78 -19.67,-7.38 -39.66,-4.68zm-389.9 954.96l38.78 1.05 1.62 36.85c-0.09,7.21 1.25,12.62 3.91,15.91 2.5,3.41 6.69,5.15 12.55,5.31 2.22,0.05 4.84,-0.23 7.84,-0.9 3.12,-0.66 7.39,-1.91 13.04,-3.62l84.33 -31.26 5.23 -191.05 -38.81 -18.25c-6.02,-2.65 -12.43,-4.68 -19.36,-6.38 -6.92,-1.68 -13.1,-2.47 -18.7,-2.62 -16.04,-0.45 -27.64,4.95 -34.91,16.46 -7.16,11.5 -11.68,31.65 -13.49,60.46l-38.78 -1.07 5.8 -211.82 38.77 1.06c2.81,20.73 11.54,38.5 25.92,53.34 14.4,14.83 38.24,30.02 71.66,45.48l402.92 185.94 -1.53 55.68 -481.84 192.68c-11.57,4.78 -19.55,10.55 -24.22,17.13 -4.53,6.73 -7.43,17.22 -8.82,31.5l-38.79 -1.07 6.87 -250.83zm392.81 -62.9l-179.09 -83.15 -4.15 151.79 183.23 -68.64zm-188.07 812.8l-178.38 -27.97c-14.88,-2.28 -25.45,-1.41 -31.5,2.69 -6.04,4.21 -10.3,13.74 -12.62,28.62l-6.15 39.82 -39.06 -6.06 44.02 -284.59 39.06 6.04 -6.11 39.57c-2.35,15.12 -1.17,25.61 3.31,31.47 4.51,5.84 14.31,10 29.2,12.29l377.75 58.45c15.09,2.31 25.7,1.32 31.91,-2.99 6.19,-4.35 10.48,-13.99 12.76,-28.86l6.14 -39.57 38.33 5.93 -50.32 325.27c-10.07,65.02 -29.11,112.53 -57.28,142.53 -28.05,30 -64.2,41.65 -108.31,34.83 -39.2,-6.07 -68.04,-25.38 -86.54,-57.8 -18.65,-32.47 -24.82,-74.68 -18.78,-126.85l-5.09 -0.4c-4.87,26.67 -16.71,48.63 -35.59,65.72 -18.86,17.08 -43.46,28.12 -73.95,33.22 -15.62,2.5 -37.02,4.22 -64.22,5.16 -39.41,1.07 -60.28,8.93 -62.54,23.54 -1.55,10.08 3.06,18.59 13.96,25.44 10.88,6.86 28.67,12.38 53.52,16.72l-5.81 37.6 -5.65 -0.88c-41.3,-6.4 -71.69,-22.14 -90.95,-47.27 -19.41,-25.04 -26.03,-57.13 -20.02,-95.96 4.09,-26.44 11.68,-47.9 22.83,-64.67 11.26,-16.63 25.75,-28.24 43.7,-34.52 19.45,-6.81 48.71,-7.31 87.58,-1.56 12.65,1.97 22.4,3.24 29.23,3.77 44.27,4.21 74.22,0.16 89.55,-11.93 15.36,-12.22 26.14,-38 32.23,-77.45 1.19,-7.73 2.1,-13.63 2.63,-17.7 0.49,-4.09 0.86,-8.05 1.17,-11.65zm197.84 30.59l-158.78 -24.54c-1.11,3.97 -2.11,8.08 -3.02,12.24 -0.89,4.15 -1.97,10.26 -3.26,18.5 -8.63,55.92 -7.01,95.93 4.83,120.27 11.83,24.34 36.42,39.37 73.92,45.17 36.24,5.61 63.21,0.44 80.74,-15.33 17.55,-15.78 29.93,-46.95 37.07,-93.17 3.85,-24.94 3.95,-41.03 0.3,-48.26 -3.67,-7.25 -14.38,-12.18 -31.82,-14.88zm-377.93 826.92l-173.45 -50.15c-14.48,-4.17 -25.08,-4.61 -31.59,-1.3 -6.54,3.4 -11.95,12.34 -16.11,26.8l-11.1 38.73 -38 -10.91 79.44 -276.82 38 10.91 -11.05 38.48c-4.22,14.71 -4.41,25.26 -0.67,31.62 3.74,6.4 12.93,11.75 27.41,15.89l367.41 105.45c14.69,4.21 25.34,4.55 32.05,1.05 6.69,-3.52 12.13,-12.55 16.28,-27.01l11.05 -38.49 37.28 10.7 -90.78 316.37c-18.18,63.24 -43.02,107.96 -74.73,134.18 -31.62,26.25 -68.92,33.26 -111.85,20.94 -38.12,-10.94 -64.31,-33.71 -78.6,-68.23 -14.42,-34.53 -15.22,-77.19 -2.67,-128.18l-5 -1.04c-8.19,25.85 -22.68,46.14 -43.57,60.73 -20.87,14.56 -46.65,22.44 -77.54,23.67 -15.79,0.5 -37.25,-0.49 -64.37,-2.96 -39.24,-3.88 -60.91,1.28 -64.99,15.5 -2.82,9.8 0.69,18.82 10.64,26.98 9.95,8.17 26.89,15.87 51.01,23.32l-10.5 36.56 -5.51 -1.56c-40.17,-11.53 -68.32,-31.01 -84.28,-58.36 -16.09,-27.25 -18.63,-59.93 -7.78,-97.7 7.36,-25.7 17.6,-46.05 30.76,-61.3 13.25,-15.08 29.11,-24.76 47.71,-28.74 20.13,-4.3 49.22,-1.14 87.06,9.48 12.32,3.54 21.82,5.99 28.53,7.41 43.39,9.73 73.61,9.46 90.35,-0.6 16.78,-10.19 30.71,-34.39 41.72,-72.76 2.17,-7.54 3.81,-13.29 4.82,-17.25 1.01,-3.98 1.87,-7.87 2.63,-11.41zm192.44 55.23l-154.44 -44.32c-1.59,3.81 -3.13,7.76 -4.53,11.78 -1.4,3.99 -3.24,9.93 -5.55,17.94 -15.6,54.38 -19.03,94.29 -10.34,119.92 8.7,25.64 31.21,43.62 67.67,54.09 35.23,10.12 62.66,8.4 82.03,-5.05 19.39,-13.44 35.59,-42.82 48.49,-87.77 6.96,-24.26 9.08,-40.22 6.37,-47.85 -2.74,-7.63 -12.72,-13.87 -29.68,-18.74zm-768.49 751.9l35.25 16.19 -13.01 34.55c-2.9,6.61 -3.77,12.08 -2.64,16.17 0.97,4.14 4.14,7.37 9.45,9.81 2.03,0.93 4.53,1.7 7.57,2.27 3.14,0.61 7.55,1.13 13.42,1.77l89.82 4.37 79.85 -173.64 -28.52 -32.01c-4.5,-4.81 -9.6,-9.19 -15.31,-13.46 -5.69,-4.27 -11.09,-7.43 -16.17,-9.78 -14.58,-6.7 -27.37,-6.27 -38.57,1.43 -11.09,7.76 -23.19,24.53 -36.15,50.31l-35.24 -16.21 88.53 -192.49 35.24 16.2c-5.56,20.17 -4.52,39.92 2.88,59.22 7.41,19.28 23.38,42.62 48.04,69.98l297.49 329.24 -23.27 50.61 -518.78 -12.06c-12.53,-0.14 -22.13,2.01 -29.01,6.24 -6.81,4.39 -13.59,12.91 -20.48,25.48l-35.26 -16.2 104.86 -227.98zm385.93 96.45l-132.02 -146.81 -63.44 137.95 195.45 8.86zm-879.49 774.5l259.41 -425.43 33.76 20.58 -19.74 32.4c-7.84,12.83 -10.95,22.73 -9.54,29.71 1.42,6.97 8.97,14.66 22.68,23l326.47 199.07c14,8.54 24.44,11.99 31.22,10.17 6.78,-1.83 14.16,-9.13 21.87,-21.76l20.06 -32.93 33.13 20.21 -153.82 252.24 -33.12 -20.2 24.41 -40.02c7.72,-12.64 10.83,-22.53 9.24,-29.75 -1.56,-7.21 -9.23,-14.96 -22.93,-23.31l-324.55 -197.9c-13.69,-8.36 -24.37,-11.38 -31.9,-8.83 -7.53,2.54 -17.92,14.84 -31.34,36.82 -31.33,51.39 -44.34,96.6 -38.86,135.63 5.37,38.96 30.38,80.59 74.94,124.77l-22.5 29.98 -168.9 -114.48z"/>
   <path class="fil4" d="M2148.07 9974.22l33.19 -20.08 22.1 36.47c7.52,12.45 14.74,19.56 21.65,21.34 6.9,1.79 17.4,-1.53 31.34,-9.98l326.91 -198.05c13.93,-8.45 21.69,-16.04 23.16,-22.74 1.46,-6.71 -1.66,-16.43 -9.33,-29.11l-22.11 -36.47 33.82 -20.5 151.92 250.8 -33.8 20.47 -21.33 -35.19c-7.81,-12.88 -15.15,-20.2 -21.95,-22.04 -6.77,-1.84 -17.09,1.33 -30.8,9.64l-326.92 198.05c-13.93,8.45 -21.71,16.23 -23.35,23.17 -1.62,6.93 1.49,16.81 9.27,29.7l21.35 35.19 -33.2 20.11 -151.92 -250.79zm358.85 -452.24l-34.74 17.26c-16.18,-26.1 -32.38,-41.4 -48.44,-45.76 -15.95,-4.42 -40.32,1.59 -73.16,17.92l-289.94 144.14 -6.73 19.16c-5.58,13.88 -8.05,25.13 -7.29,33.64 0.69,8.39 3.74,18.14 9.11,28.95l3.6 7.21 -34.75 17.26 -83.7 -168.35 173.98 -403.96 -180.39 89.7c-34.52,17.16 -54.62,33.96 -60.34,50.42 -5.59,16.39 -0.8,40.26 14.46,71.52l-34.56 17.63 -97.82 -196.76 34.73 -17.26c14.75,26.28 29.92,41.48 45.79,45.42 15.84,3.93 40.42,-2.47 73.84,-19.07l368.89 -183.39 20.93 42.07 -216.35 500 244.96 -121.78c33.5,-16.66 53.3,-33.3 59.51,-50.14 6.15,-16.67 2.24,-40.13 -11.63,-70.34l34.73 -17.24 95.33 191.74zm-349.98 -766.37l-203.62 73.54 -11.79 -36.18c49.54,-38.63 83.55,-79.13 101.86,-121.71 18.44,-42.5 20.57,-85.3 6.51,-128.47 -10.08,-30.97 -25.43,-52.79 -45.99,-65.7 -20.5,-12.79 -43.64,-15.09 -69.28,-6.72 -11.35,3.69 -20.99,9.43 -28.91,17.28 -7.92,7.81 -13.51,16.69 -16.66,26.73 -4.38,14.66 -4.44,47.38 -0.22,98.03 1.54,18.74 2.61,33.29 3.15,43.84 5.05,68.45 -0.71,120.55 -17.33,155.91 -16.47,35.33 -46.08,60.01 -88.75,73.93 -46.26,15.06 -89.86,10.45 -131.09,-13.79 -41.26,-24.22 -70.48,-62.95 -87.85,-116.29 -7.83,-24 -12.11,-47.95 -13,-72 -0.74,-23.96 1.9,-48.36 8.09,-73.12l-46.4 -24.37 -10.15 -31.09 184.47 -69.66 10.85 33.33c-46.28,42.95 -77.06,82.16 -92.13,117.39 -15.02,35.39 -16.63,71.34 -4.66,108.11 9.78,30.02 24.12,51.14 43.14,63.36 18.92,12.28 40.41,14.43 64.4,6.61 34.89,-11.38 48.11,-60.27 39.62,-146.57 -1.59,-16.09 -2.8,-28.25 -3.48,-36.78 -3.76,-41.17 -4.52,-71.65 -2.16,-91.26 2.21,-19.66 7.37,-37.59 15.42,-53.81 9.17,-18.81 22.63,-35.36 40.4,-49.78 17.85,-14.32 38.69,-25.42 62.68,-33.25 50.36,-16.4 95.76,-12.75 136.26,10.8 40.5,23.55 69.95,63.77 88.5,120.66 9.77,30.02 14.86,58.05 15.22,84.08 0.25,26.07 -4.05,52.2 -13.04,78.39l55.97 28.08 9.95 30.49zm-625.21 -1019.23c-50.33,15.92 -88.25,37.08 -113.71,63.48 -25.61,26.42 -35.72,54.73 -30.32,84.97 2.3,12.96 6.42,21.21 12.25,24.85 5.81,3.63 16.16,4.2 30.96,1.56l381.46 -68c15.79,-2.81 25.62,-7.2 29.49,-13.08 3.89,-5.88 4.58,-16.23 1.92,-31.15l-6.43 -36.01 38.93 -6.93 49.62 278.38 -38.93 6.94 -6.59 -36.97c-2.6,-14.57 -6.65,-23.82 -12.19,-27.89 -5.52,-4.05 -16.36,-4.68 -32.39,-1.81l-381.46 67.98c-15.06,2.69 -24.69,6.68 -28.81,11.97 -4.1,5.28 -5.02,14.29 -2.74,27.02 5.37,30.11 24.6,53.08 57.76,69.02 33.02,15.96 75.9,22.72 128.7,20.52l6.55 36.72 -201.85 24.09 -86.3 -484.28 197.68 -47.38 6.41 36zm-260.63 -553.66l38.7 -2.38 2.64 42.57c0.88,14.5 3.98,24.16 9.26,28.96 5.3,4.77 16.12,6.73 32.38,5.71l381.51 -23.57c16.25,-1.01 26.66,-4.13 31.07,-9.39 4.41,-5.25 6.15,-15.33 5.25,-30.09l-2.64 -42.57 39.46 -2.45 18.07 292.67 -39.44 2.43 -2.54 -41.06c-0.93,-15.03 -4.03,-24.92 -9.18,-29.71 -5.17,-4.78 -15.75,-6.77 -31.77,-5.77l-381.49 23.57c-16.28,0.99 -26.79,4.27 -31.45,9.66 -4.64,5.41 -6.51,15.6 -5.57,30.62l2.53 41.07 -38.73 2.4 -18.06 -292.67zm215.97 -728.53c-52.64,4.11 -94.37,16.13 -125.15,36.06 -30.93,19.93 -47.19,45.23 -48.79,75.92 -0.67,13.16 1.47,22.1 6.31,26.97 4.85,4.86 14.79,7.75 29.81,8.52l386.95 20.17c16.03,0.84 26.59,-1.22 31.71,-6.05 5.11,-4.86 8.09,-14.78 8.9,-29.91l1.9 -36.52 39.49 2.06 -14.72 282.39 -39.47 -2.06 1.95 -37.5c0.76,-14.78 -1.08,-24.72 -5.55,-29.93 -4.46,-5.2 -14.89,-8.25 -31.17,-9.11l-386.93 -20.17c-15.29,-0.77 -25.57,0.92 -30.77,5.14 -5.19,4.2 -8.12,12.78 -8.79,25.7 -1.62,30.52 11.95,57.26 40.63,80.29 28.54,23.03 68.78,39.33 120.7,49.14l-1.94 37.23 -202.06 -22.23 25.61 -491.23 203.28 -1.37 -1.91 36.5zm-121.86 -590.51l38.14 7.05 -6.77 36.56c-2.74,14.81 -2.01,25.19 2.06,31.23 4.06,6.08 13.99,10.56 29.62,13.46l268.02 49.64c49.02,9.09 86.5,5.39 112.44,-10.92 26.01,-16.31 43.19,-46.89 51.49,-91.75 3.63,-19.59 4.28,-38.05 1.94,-55.54 -2.3,-17.51 -7.35,-32.61 -15.1,-45.42 -9.49,-15.68 -22.91,-27.89 -40.24,-36.79 -17.44,-8.93 -48.37,-17.42 -93.1,-25.72l-192.35 -35.62c-32.04,-5.92 -54.96,-4.36 -68.91,4.81 -13.96,9.18 -23.51,27.9 -28.74,56.15l-0.93 5 -38.13 -7.07 37.36 -201.74 38.13 7.08c-2.52,27.34 0.85,47.33 10.4,59.96 9.55,12.65 29.49,21.75 59.81,27.38l198.81 36.82c42.05,7.79 71.9,15.34 89.76,22.7 17.69,7.45 32.84,17.2 45.4,29.4 24.61,23.42 40.63,52.3 48.26,86.84 7.56,34.4 6.84,75.75 -2.05,123.8 -13.32,71.91 -38.27,123.43 -74.91,154.6 -36.62,31.16 -84.26,41.28 -143.09,30.39l-288.44 -53.43c-15.63,-2.88 -26.5,-2.24 -32.46,1.97 -5.99,4.19 -10.38,13.63 -13.12,28.43l-6.91 37.28 -38.13 -7.07 51.75 -279.49zm468.29 -953.93c-51.86,-9.79 -95.28,-9.08 -130.2,2.1 -35.06,11.15 -57.39,31.35 -66.93,60.53 -4.09,12.52 -4.38,21.73 -0.95,27.7 3.41,5.95 12.25,11.33 26.54,16l368.23 120.59c15.25,5 25.99,5.77 32.18,2.44 6.19,-3.34 11.69,-12.15 16.42,-26.55l11.37 -34.75 37.59 12.31 -88.01 268.71 -37.57 -12.29 11.68 -35.69c4.61,-14.06 5.41,-24.14 2.47,-30.34 -2.95,-6.19 -12.22,-11.85 -27.69,-16.93l-368.23 -120.59c-14.53,-4.74 -24.92,-5.8 -31.05,-3.08 -6.1,2.7 -11.18,10.2 -15.19,22.51 -9.54,29.05 -3.43,58.39 18.24,88.14 21.54,29.68 56.12,55.92 103.66,78.95l-11.6 35.44 -189.22 -74.26 153.1 -467.48 196.55 51.82 -11.38 34.73zm220.92 -371.54c74.83,33.36 134.55,48.12 179.25,44.34 44.82,-3.73 76.27,-26.04 94.59,-67.16 18.07,-40.56 13.42,-78.96 -13.98,-115.26 -27.5,-36.35 -78.13,-70.88 -152.08,-103.83 -74.75,-33.3 -134.56,-48.13 -179.41,-44.3 -44.87,3.84 -76.49,26.22 -94.76,67.24 -18.22,40.87 -13.56,79.3 13.8,115.33 27.4,36.02 78.29,70.57 152.6,103.65zm-60.74 136.3c-36.58,-16.3 -67.8,-37.29 -93.71,-62.85 -25.98,-25.72 -45.67,-55.18 -59.23,-88.61 -14.42,-35.15 -20.79,-70.93 -19.25,-107.4 1.39,-36.42 10.85,-74.14 28.26,-113.2 18.01,-40.43 39.94,-73.15 65.99,-98.3 25.89,-25.08 57.25,-44.19 94.25,-57.23 33.2,-11.88 67.9,-16.72 104.06,-14.49 36.22,2.14 72.55,11.36 108.88,27.56 37.71,16.81 68.39,36.86 91.91,60.15 23.46,23.12 42.11,51.84 55.95,85.91 15.03,37.06 22.28,74.6 21.41,112.61 -0.91,38.11 -9.75,75.94 -26.55,113.66 -17.1,38.39 -38.85,70.1 -65.29,95.2 -26.51,24.95 -58.83,44.32 -96.96,57.8 -35.1,13.09 -69.35,18.78 -102.88,17.06 -33.55,-1.74 -69.13,-11.08 -106.84,-27.87z"/>
   <path class="fil4" d="M4298.21 1596.74c-38.24,-36.4 -75.06,-59.41 -110.48,-68.98 -35.49,-9.7 -65.18,-4.87 -89.06,14.44 -10.24,8.3 -15.49,15.88 -15.85,22.74 -0.37,6.86 4.14,16.19 13.59,27.87l243.64 301.28c10.08,12.48 18.69,18.95 25.7,19.53 7.01,0.57 16.4,-3.84 28.21,-13.38l28.44 -22.98 24.86 30.73 -219.87 177.81 -24.87 -30.73 29.19 -23.62c11.51,-9.3 17.66,-17.33 18.55,-24.12 0.9,-6.81 -3.8,-16.61 -14.05,-29.26l-243.64 -301.28c-9.63,-11.89 -17.78,-18.41 -24.38,-19.44 -6.6,-1.07 -14.94,2.47 -24.99,10.6 -23.79,19.23 -34.61,47.2 -32.55,83.93 1.94,36.62 16.71,77.46 44.11,122.6l-29 23.46 -118.5 -165.13 382.49 -309.32 136.91 150.28 -28.44 22.99zm473.04 83.74l-19.36 -34.48 32.43 -18.2c13.11,-7.36 20.67,-14.47 22.86,-21.26 2.17,-6.77 -0.67,-17.17 -8.51,-31.16l-187.16 -333.29c-7.97,-14.2 -15.46,-22.25 -22.47,-24.04 -6.98,-1.77 -16.99,0.98 -30.09,8.34l-32.44 18.2 -18.99 -33.82 424.17 -238.16 100.17 166.21 -31.88 17.91c-39.44,-43.6 -77.6,-68.37 -114.3,-74.58 -36.76,-6.02 -80.45,5.08 -131.06,33.51 -21.37,12 -33.32,21.71 -36.03,29.08 -2.7,7.36 -0.01,18.25 8.08,32.69l79.33 141.27 9.21 -5.17c28.09,-15.77 45.33,-34.32 51.56,-55.49 6.32,-21.23 2.92,-50.12 -10.07,-86.74l32.52 -18.27 120.92 215.33 -32.54 18.28c-24.25,-29.73 -47.02,-47.47 -68.45,-53.14 -21.31,-5.69 -46.14,-0.61 -74.21,15.16l-9.21 5.16 88.09 156.89c8.09,14.45 16.27,22.4 24.46,23.77 8.1,1.47 23.15,-4 44.93,-16.23 55.2,-30.99 90.3,-65.26 105.33,-102.47 15.14,-37.33 14.01,-86.32 -3.32,-146.89l33.91 -15.77 90.48 181.22 -438.35 246.13zm1135.46 -753.24c11.75,64.03 5.13,119.41 -19.76,165.75 -24.86,46.4 -66.96,81.61 -126.14,105.48 -29.75,11.99 -59.16,19.17 -88.38,21.58 -29.12,2.24 -57.49,-0.27 -85.16,-7.75 -43.04,-12 -80.38,-32.73 -112.22,-62.41 -31.63,-29.6 -56.59,-66.86 -74.68,-111.72 -14.09,-34.94 -21.74,-69.81 -22.83,-104.75 -1.05,-34.84 4.27,-69.16 16.08,-102.75 13.21,-36.71 33.02,-68.04 59.38,-94.09 26.3,-25.89 59.96,-47.13 101.01,-63.69 25.03,-10.09 49.36,-16.29 73.25,-18.54 23.9,-2.26 47.55,-0.42 71.03,5.26l24.06 -51.4 29.05 -11.72 91.08 197.49 -34.09 16.83c-37.56,-50.53 -75.92,-84.82 -114.71,-102.81 -38.77,-18.02 -77.44,-19.16 -115.84,-3.66 -45.32,18.27 -71.27,48.99 -77.95,92.29 -6.54,43.28 5.78,103.73 37.1,181.37 32.09,79.56 65.78,131.8 101.02,157 35.36,25.17 77.94,27.68 127.87,7.54 38.74,-15.62 66.48,-41.59 83.33,-77.98 16.74,-36.27 21.8,-81.2 15.11,-134.69l42.39 -2.62zm358.73 78.23l-10.24 -37.43c28.74,-10.84 46.86,-23.77 54.24,-38.7 7.44,-14.78 6.24,-39.86 -3.43,-75.25l-85.41 -312.33 -17.52 -10.29c-12.55,-8.17 -23.08,-12.75 -31.59,-13.67 -8.38,-0.93 -18.52,0.17 -30.14,3.36l-7.79 2.14 -10.22 -37.43 181.34 -49.61 362.71 248.76 -53.12 -194.32c-10.18,-37.17 -22.77,-60.14 -37.82,-68.94 -15,-8.65 -39.35,-8.56 -73,0.37l-10.59 -37.3 211.94 -57.96 10.22 37.41c-28.64,9.38 -46.48,21.36 -53.41,36.14 -6.91,14.78 -5.39,40.14 4.44,76.13l108.69 397.37 -45.33 12.42 -448.78 -308.88 72.16 263.88c9.87,36.09 22.37,58.72 37.69,68.08 15.16,9.26 38.96,9.96 71.25,2.17l10.24 37.43 -206.53 56.49zm988.65 -494.18c8.83,81.46 26.12,140.49 51.88,177.24 25.78,36.83 60.88,52.79 105.64,47.92 44.14,-4.77 75,-28.12 92.59,-70.08 17.57,-42.05 21.93,-103.18 13.21,-183.66 -8.85,-81.36 -26.14,-140.5 -52.01,-177.35 -25.9,-36.83 -61.17,-52.88 -105.8,-48.05 -44.5,4.84 -75.34,28.19 -92.7,69.97 -17.35,41.78 -21.59,103.14 -12.8,184.01zm-148.34 16.09c-4.32,-39.81 -1.9,-77.35 7.15,-112.59 9.18,-35.39 24.73,-67.24 46.78,-95.77 23.11,-30.13 50.84,-53.67 83.13,-70.68 32.17,-17.13 69.53,-27.92 112.04,-32.55 44.01,-4.77 83.31,-2.27 118.15,7.57 34.7,9.75 66.99,27.25 96.89,52.65 26.96,22.7 48.61,50.26 64.87,82.64 16.4,32.37 26.69,68.4 30.98,107.97 4.45,41.03 2.54,77.62 -5.73,109.67 -8.19,31.92 -23.62,62.47 -46.12,91.57 -24.44,31.66 -53.24,56.8 -86.5,75.17 -33.41,18.39 -70.57,29.81 -111.61,34.27 -41.78,4.52 -80.11,1.68 -115.13,-8.53 -34.89,-10.34 -67.89,-28.54 -98.74,-54.72 -28.96,-23.72 -51.12,-50.47 -66.51,-80.32 -15.37,-29.86 -25.21,-65.3 -29.66,-106.35zm1380.31 212.54l-498.05 -15.13 1.21 -39.52 37.9 1.16c15.02,0.44 25.18,-1.73 30.55,-6.42 5.35,-4.69 8.28,-15.06 8.77,-31.11l11.6 -382.18c0.5,-16.4 -1.65,-27.17 -6.6,-32.17 -4.95,-5 -14.94,-7.79 -29.71,-8.23l-38.55 -1.19 1.16 -38.76 295.34 8.97 -1.19 38.77 -46.84 -1.41c-14.79,-0.45 -24.95,1.72 -30.43,6.66 -5.51,4.93 -8.44,15.42 -8.93,31.45l-11.55 379.97c-0.47,16.03 2.17,26.8 8.11,32.09 5.93,5.28 21.77,8.25 47.5,9.04 60.15,1.82 105.9,-9.21 137.09,-33.28 31.21,-23.93 55.02,-66.26 71.41,-126.85l37.19 4.74 -16 203.42zm501.5 -195.12c-16.21,80.33 -17.55,141.83 -4.13,184.61 13.42,42.93 42.09,68.76 86.2,77.66 43.53,8.77 80,-4.16 109.44,-38.81 29.47,-34.78 52.11,-91.72 68.12,-171.09 16.18,-80.21 17.58,-141.84 4.05,-184.77 -13.55,-42.93 -42.32,-68.9 -86.3,-77.78 -43.89,-8.85 -80.36,4.09 -109.54,38.66 -29.18,34.59 -51.75,91.81 -67.85,171.54zm-146.27 -29.5c7.93,-39.24 21.6,-74.29 40.87,-105.15 19.43,-30.98 43.9,-56.62 73.54,-77.15 31.15,-21.74 64.67,-35.79 100.6,-42.26 35.84,-6.59 74.72,-5.59 116.66,2.86 43.38,8.75 80.1,23.01 110.31,42.92 30.14,19.79 55.65,46.26 76.45,79.49 18.85,29.81 31.15,62.6 36.86,98.39 5.84,35.82 4.74,73.28 -3.11,112.28 -8.17,40.47 -21.06,74.78 -38.6,102.8 -17.47,27.97 -41.42,52.43 -71.67,73.35 -32.87,22.8 -67.91,38.06 -105.18,45.52 -37.41,7.41 -76.27,7.06 -116.74,-1.1 -41.2,-8.31 -76.89,-22.63 -107.15,-42.94 -30.14,-20.42 -56.09,-47.71 -77.59,-81.99 -20.45,-31.38 -33.48,-63.57 -39.09,-96.68 -5.64,-33.1 -4.3,-69.88 3.84,-110.34zm1220.96 410.42c4.63,-14.56 5.3,-25.32 2,-32.23 -3.28,-6.91 -11.82,-12.48 -25.44,-16.8l-38.53 -12.22 11.75 -36.99 253.88 80.55 -11.73 36.98 -27.87 -8.82c-13.86,-4.43 -24.18,-4.81 -30.97,-1.09 -6.76,3.7 -12.55,12.84 -17.16,27.41l-55.93 176.25 -33.32 -10.56 -14.16 -82c-25.68,16.77 -55.06,26.77 -88.02,29.88 -32.99,3.24 -66.34,-0.6 -100.12,-11.31 -28.22,-8.95 -54.12,-21.85 -77.65,-38.59 -23.52,-16.73 -43.56,-36.66 -60.08,-59.76 -25.47,-34.85 -40.86,-73.5 -46.17,-116.03 -5.38,-42.64 -0.44,-87.8 14.79,-135.81 14.22,-44.79 36.3,-83.2 66.15,-115.2 29.84,-31.9 65.89,-55.42 107.87,-70.67 27.16,-9.88 56.35,-14.72 87.66,-14.32 31.32,0.41 64,5.97 97.78,16.69 29.62,9.39 54.83,21.18 75.49,35.43 20.71,14.16 37.34,30.78 49.66,49.55l51.75 -23.38 31.88 10.12 -57.13 203.14 -36.78 -8.28c2.23,-58.39 -7.14,-107.42 -28.17,-147.23 -20.94,-39.65 -51,-65.76 -90.13,-78.18 -47.64,-15.11 -88.97,-7.36 -123.85,23.19 -34.88,30.53 -64.99,85.57 -90.19,164.98 -25.12,79.18 -33.28,140.26 -24.47,183.22 8.71,42.83 35.28,71.34 79.49,85.36 33.32,10.56 62.23,8.66 86.78,-5.86 24.57,-14.5 42.84,-40.41 54.64,-77.62l6.29 -19.8zm875.43 -38.03l-15.96 35.36 -38.9 -17.54c-13.23,-5.97 -23.21,-7.75 -29.92,-5.31 -6.68,2.46 -13.46,11.12 -20.14,25.98l-157.17 348.42c-6.7,14.86 -8.77,25.52 -6.19,31.86 2.59,6.37 10.69,12.61 24.18,18.69l38.9 17.54 -16.26 36.05 -267.29 -120.56 16.26 -36.03 37.5 16.91c13.72,6.18 23.92,8.06 30.55,5.73 6.66,-2.32 13.34,-10.75 19.95,-25.38l157.15 -348.44c6.71,-14.86 8.69,-25.68 6.09,-32.32 -2.58,-6.62 -10.73,-13.04 -24.46,-19.22l-37.51 -16.91 15.92 -35.38 267.3 120.56zm582.68 711.12c-42.91,48.98 -90.44,78.16 -142.24,87.42 -51.78,9.31 -105.52,-1.84 -160.97,-33.42 -27.88,-15.87 -51.75,-34.47 -71.78,-55.89 -19.83,-21.44 -35.48,-45.24 -46.81,-71.58 -17.32,-41.2 -24.24,-83.32 -20.71,-126.69 3.55,-43.2 17.28,-85.89 41.21,-127.93 18.66,-32.74 41.23,-60.36 67.97,-82.92 26.66,-22.47 56.87,-39.58 90.52,-51.2 36.99,-12.44 73.84,-16.32 110.65,-11.84 36.61,4.54 74.17,17.76 112.63,39.66 23.45,13.36 43.41,28.57 60,45.91 16.59,17.33 29.85,37.02 39.97,58.94l55.24 -13.02 27.21 15.49 -98.31 194.02 -34.35 -16.29c16.29,-60.81 19.38,-112.16 9.41,-153.73 -9.95,-41.6 -33.05,-72.64 -69.04,-93.13 -42.47,-24.18 -82.65,-25.45 -120.76,-3.79 -37.97,21.71 -77.73,68.92 -119.16,141.66 -42.43,74.56 -62.47,133.39 -60.37,176.66 2.23,43.36 26.7,78.29 73.48,104.94 36.32,20.67 73.87,26.32 112.86,16.91 38.83,-9.37 77.19,-33.32 114.98,-71.77l28.37 31.61zm455.2 202.59c-47.81,66.55 -74.35,122.04 -79.73,166.58 -5.41,44.63 10.08,79.96 46.61,106.23 36.08,25.91 74.64,29.14 115.73,9.65 41.17,-19.57 85.24,-62.14 132.47,-127.88 47.76,-66.44 74.4,-122.05 79.74,-166.73 5.32,-44.71 -10.21,-80.22 -46.66,-106.43 -36.35,-26.11 -74.91,-29.33 -115.72,-9.82 -40.83,19.53 -84.96,62.36 -132.43,128.4zm-121.16 -87.07c23.37,-32.51 50.27,-58.83 80.52,-79.03 30.45,-20.21 63.3,-33.55 98.76,-40.06 37.35,-6.99 73.68,-5.98 109.08,2.91 35.39,8.73 70.41,25.62 105.15,50.58 35.94,25.83 63.52,53.95 82.9,84.53 19.31,30.44 31.66,65.03 36.94,103.89 4.91,34.92 2.63,69.88 -6.88,104.84 -9.42,35.05 -25.82,68.75 -49.04,101.06 -24.1,33.52 -49.94,59.5 -77.5,77.82 -27.4,18.27 -59.3,30.74 -95.49,37.37 -39.34,7.23 -77.56,6.73 -114.6,-1.81 -37.14,-8.64 -72.4,-24.94 -105.92,-49.04 -34.14,-24.53 -60.78,-52.25 -80.01,-83.23 -19.07,-31 -31.48,-66.58 -36.97,-106.66 -5.71,-37.01 -4.33,-71.71 4.14,-104.2 8.49,-32.5 24.85,-65.46 48.93,-98.98z"/>
  </g>
 </g>
</svg>
