<?xml version="1.0" encoding="UTF-8"?>
<!DOCTYPE svg PUBLIC "-//W3C//DTD SVG 1.1//EN" "http://www.w3.org/Graphics/SVG/1.1/DTD/svg11.dtd">
<!-- Creator: CorelDRAW 2019 (64-Bit) -->
<svg xmlns="http://www.w3.org/2000/svg" xml:space="preserve" width="152.457mm" height="149.166mm" version="1.1" style="shape-rendering:geometricPrecision; text-rendering:geometricPrecision; image-rendering:optimizeQuality; fill-rule:evenodd; clip-rule:evenodd"
viewBox="0 0 15305.13 14974.76"
 xmlns:xlink="http://www.w3.org/1999/xlink">
 <defs>
  <style type="text/css">
   <![CDATA[
     .fil3 {fill:#ffffff}
     .fil2 {fill:#7A0C0B}
     .fil0 {fill:#CB6307}
     .fil1 {fill:#DA941B}
     .fil4 {fill:#ffffff;fill-rule:nonzero}
   ]]>
  </style>
 </defs>
 <g id="Capa_x0020_1">
  <metadata id="CorelCorpID_0Corel-Layer"/>
  <g id="Sistemas_x0020_Computacionales.cdr">
   <path class="fil0" d="M7783.01 0c3387.84,0 6269.63,2082.64 7338.75,4989.51l-987.27 0c-1023.68,-2406.43 -3481.57,-4101.98 -6351.49,-4101.98 -3788.9,0 -6860.42,2954.87 -6860.42,6599.83 0,3644.98 3071.52,6599.85 6860.42,6599.85 3091.79,0 5705.54,-1967.71 6562.82,-4672.3l959.31 0c-884.04,3200.96 -3916.55,5559.84 -7522.12,5559.84 -4298.42,0 -7783.01,-3352.23 -7783.01,-7487.39 0,-4135.14 3484.59,-7487.37 7783.01,-7487.37z"/>
   <path class="fil1" d="M7652.57 2304.95c2361.65,0 4368.15,1462.09 5095.36,3496.62l-371.16 119.52c-675.24,-1885.29 -2535.14,-3239.96 -4724.19,-3239.96 -2625.12,0 -4777.26,1947.91 -4980.19,4423.16l10352.55 0c9.61,126.47 14.68,254.21 14.68,383.06 0,2862.17 -2411.88,5182.43 -5387.04,5182.43 -2488.87,0 -4583.18,-1623.92 -5201.43,-3830.34l371.53 -119.64c565.74,2057.2 2513.63,3573.79 4829.89,3573.79 2759.17,0 4995.99,-2151.86 4995.99,-4806.24l-10383.03 0c0,-2862.17 2411.89,-5182.41 5387.04,-5182.41z"/>
   <path class="fil2" d="M8719.6 3084.39c256.68,54.33 505.27,130.48 743.72,226.5l647.74 -857.93c278.91,129.16 545.31,280.73 796.82,452.53l-403.82 996.5c188.73,143.38 365.85,301.23 529.59,472.04l943.8 -515.12c199.81,230.65 380.73,478.11 540.73,739.73l-778.06 741.44c147.65,271.38 267.88,559.85 357.62,861.37l1074.73 -27.45c71.27,293.29 119.26,595.69 141.9,905.14l-1031.17 304.56c0.76,34.47 1.31,69.02 1.31,103.66 0,189.46 -11.82,376.16 -34.57,559.44l995.23 407.63c-53.58,304.61 -132.22,600.55 -233.37,885.86l-1066.62 -136.28c-79.67,192.9 -172.37,379.05 -276.99,557.35l753.68 766.25c-168.29,256.22 -357.26,497.61 -564.48,721.91l-926.42 -545.33c-157.61,154.24 -326.54,296.97 -505.38,426.85l382.07 1005.06c-255.04,166.26 -524.67,311.94 -806.42,435.05l-628.96 -871.85c-148.77,56.17 -301.24,104.85 -457.04,145.25l-10.66 1074.88c-295.35,60.7 -599.41,97.42 -909.92,109.06l-228.05 -886.6c-238.44,-51.45 -322.46,-54.67 -416.15,-154.39 241.47,-233.2 384.65,-369.4 644.04,-980.63 173.09,-407.89 885.42,-415.83 1369.51,-419.72 162.12,-1.28 350.68,-79.52 405.15,-274.11 33.21,-118.68 -71.9,-288.46 -24.51,-416.09 57.14,-153.91 345.03,-199.81 323.43,-350.42 -44.51,-310.37 -88.44,-418.58 -107.56,-617.97 -12.58,-131.22 -36.79,-365.63 77.92,-420.61 220.94,-105.91 368.59,-160.26 383.38,-267.23 17.43,-126.11 -148.27,-344.51 -399.97,-652.91 -374.76,-459.17 -448.03,-781.39 -331.03,-1453.18 71.34,-409.54 101.96,-792.51 -19.39,-1107.88 -267.45,-695.11 -1266.59,-1324.07 -2236.74,-1597.82l312.38 -1486.65c11.99,-0.07 23.92,-0.46 35.94,-0.46 298.8,0 591.99,23.92 877.99,69.43l58.6 1073.12z"/>
   <path class="fil3" d="M8303.03 4462.94l74.29 -76.28 761.36 0 -74.31 76.28 -761.34 0zm857.14 -54.19l0 583.5 -73.89 75.86 0 -583.5 73.89 -75.86zm-104.8 675.23l-767.4 0 0 -590.13 767.4 0 0 590.13z"/>
   <path class="fil3" d="M6645.91 3015.9l61.92 -65.43 483.14 0 -61.92 65.43 -483.14 0zm556.14 -54.05l0 417.6 -61.72 65.22 0 -417.6 61.72 -65.22zm-77.64 491.01l-486.26 0 0 -421.03 486.26 0 0 421.03z"/>
   <path class="fil3" d="M6117.41 4904.45l29.58 0c-6.27,-45.74 -9.54,-92.69 -9.54,-140.56 0,-47.87 3.26,-94.84 9.54,-140.59l-29.58 0c-8.78,45.51 -13.4,92.5 -13.4,140.59 0,48.07 4.62,95.06 13.4,140.56zm1392.96 1160.9l-145.92 96.99 -1403.19 0 310.76 -206.58 1176.52 0 -238.9 -423.53c-111.76,53.85 -237,84.06 -369.2,84.06 -152.68,0 -296.07,-40.3 -420.11,-110.8l-2363.68 3375.86 556.82 475.6 -202.94 21.62 -439.31 -375.24 -20.77 29.7 428.65 366.13 -619.51 725.3 -837.66 -715.51 619.51 -725.29 350.27 299.18 20.79 -29.69 -334.25 -285.5 202.95 -21.6 216.7 185.11 2357.28 -3366.66c-41.98,-29.13 -81.21,-61.99 -117.24,-98.02 -141.76,-141.52 -233.78,-332.84 -247.85,-545.46l-842.06 0 0 212.26 -119.75 126.56 0 -810.33 119.75 -126.55 0 520.83 840.39 0c5.26,-227.41 99.57,-432.8 249.39,-582.64 42.18,-42.11 88.73,-79.82 138.92,-112.44l-243.48 -410.45 -217.16 125.39 -244.86 -424.14 489.82 -282.83 244.9 424.14 -205.94 118.89 243.19 409.95c118.17,-62.42 252.69,-97.85 395.4,-98.16l0 -588.97 77.22 0 0 592.25c149.27,13.11 287.56,64.79 404.85,145.02l82.28 -108.45 -110.36 -75.14 173.79 -255.27 294.83 200.73 -173.79 255.3 -120.87 -82.3 -84.46 111.34c21.14,17.45 41.47,35.9 60.85,55.26 149.95,149.71 244.27,355.1 249.52,582.51l883.47 0 0 77.22 -885.14 0c-14.07,212.62 -106.09,403.96 -247.72,545.59 -49.62,49.51 -105.26,92.98 -165.75,129.18l259.48 459.97 138.44 0 -100.68 66.94 -64.18 42.66zm79.09 -16.24l107.27 -71.27 0 261.43 1112.7 1972.49 525.71 -320.49 -34.03 148.84 -932 568.18 34.02 -148.86 340.63 -207.65 -1047.04 -1856.08 0 4043.29 -310.37 206.16 0 -4461.15 138.9 -92.26 64.2 -42.64zm-3520.56 -1721.26l120.15 -126.97 937.48 0 -120.16 126.97 -937.47 0zm928.48 847.85l-943.54 0 0 -816.95 943.54 0 0 816.95zm672.4 -1856.76l24.31 -101.94 486.7 -280.99 -24.32 101.94 -486.69 280.99zm528.8 -377.91l242.86 420.69 -24.22 101.6 -242.86 -420.7 24.22 -101.59zm1279.07 673.46l64.57 -14.09 292.94 199.45 -64.57 14.1 -292.94 -199.46zm359.51 196.79l-172.39 253.23 -64.35 14.07 172.41 -253.24 64.33 -14.06zm1540.8 4091l435.41 714.31 -33.84 147.99 -435.41 -714.27 33.84 -148.03zm375.59 904.79l-939.42 572.67 -440.37 -722.39 939.43 -572.7 440.36 722.42zm-5137.72 585.76l-614.49 719.4 -202.29 21.55 614.49 -719.37 202.29 -21.58zm1648.14 -4488.38l29.79 0c-4.88,-45.74 -7.44,-92.69 -7.44,-140.56 0,-47.87 2.56,-94.84 7.44,-140.59l-29.79 0c-7.01,45.49 -10.68,92.5 -10.68,140.59 0,48.09 3.67,95.08 10.68,140.56zm146.27 0l176.88 0c-2.02,-45.7 -3.06,-92.67 -3.06,-140.56 0,-47.92 1.04,-94.89 3.06,-140.59l-176.88 0c-5.32,45.51 -8.09,92.5 -8.09,140.59 0,48.09 2.77,95.06 8.09,140.56zm292.77 0l274.87 0c2.06,-45.55 3.13,-92.52 3.13,-140.56 0,-48.05 -1.07,-95.04 -3.13,-140.59l-274.87 0c-2.06,45.55 -3.12,92.54 -3.12,140.59 0,48.04 1.06,95.01 3.12,140.56zm390.76 0l176.88 0c5.32,-45.5 8.1,-92.47 8.1,-140.56 0,-48.09 -2.78,-95.08 -8.1,-140.59l-176.88 0c2.02,45.7 3.07,92.67 3.07,140.59 0,47.89 -1.05,94.86 -3.07,140.56zm293.36 0l29.8 0c7,-45.48 10.68,-92.47 10.68,-140.56 0,-48.09 -3.68,-95.1 -10.68,-140.59l-29.8 0c4.89,45.75 7.45,92.72 7.45,140.59 0,47.87 -2.56,94.82 -7.45,140.56zm146.76 0l29.59 0c8.77,-45.5 13.39,-92.49 13.39,-140.56 0,-48.09 -4.62,-95.08 -13.39,-140.59l-29.59 0c6.28,45.75 9.55,92.72 9.55,140.59 0,47.87 -3.26,94.82 -9.55,140.56zm-2.87 115.83l-19.98 0c-11.87,45.62 -26.77,89.57 -44.48,131.52 25.64,-41.3 47.3,-85.31 64.46,-131.52zm-139.99 0l-21.7 0c-11.34,55.95 -26.27,109.4 -44.37,159.63 26.94,-49.25 49.25,-102.79 66.08,-159.63zm-139.98 0l-164.62 0c-9.09,108.76 -23.81,207.61 -42.77,291.02l88.16 0 10.41 -16.15c47.83,-76.59 85.32,-170.18 108.81,-274.87zm-280.76 0l-259.67 0c9.63,110.99 25.35,210.17 45.51,291.02l168.67 0c20.16,-80.85 35.87,-180.03 45.5,-291.02zm-375.81 0l-164.61 0c23.48,104.69 60.98,198.28 108.8,274.87l10.42 16.15 88.16 0c-18.95,-83.41 -33.69,-182.26 -42.78,-291.02zm-282.89 0l-21.71 0c16.83,56.84 39.13,110.38 66.08,159.63 -18.1,-50.24 -33.03,-103.68 -44.36,-159.63zm-141.73 0l-19.98 0c17.16,46.21 38.83,90.22 64.46,131.52 -17.71,-41.95 -32.62,-85.9 -44.48,-131.52zm-19.98 -512.8l19.98 0c11.87,-45.62 26.77,-89.56 44.48,-131.52 -25.63,41.3 -47.3,85.32 -64.46,131.52zm139.99 0l21.71 0c11.33,-55.95 26.26,-109.37 44.36,-159.6 -26.94,49.22 -49.25,102.76 -66.08,159.6zm139.99 0l164.61 0c9.09,-108.76 23.79,-207.58 42.78,-290.99l-88.16 0 -10.42 16.15c-47.85,76.58 -85.32,170.15 -108.8,274.84zm280.75 0l259.67 0c-9.63,-110.99 -25.34,-210.14 -45.5,-290.99l-168.67 0c-20.16,80.85 -35.88,180 -45.51,290.99zm375.81 0l164.62 0c-23.49,-104.69 -60.97,-198.26 -108.81,-274.84l-10.41 -16.15 -88.16 0c18.97,83.41 33.68,182.23 42.77,290.99zm282.9 0l21.7 0c-16.83,-56.84 -39.13,-110.38 -66.08,-159.6 18.1,50.23 33.03,103.65 44.37,159.6zm141.72 0l19.98 0c-17.16,-46.2 -38.82,-90.22 -64.46,-131.52 17.71,41.96 32.62,85.9 44.48,131.52zm-859.33 -406.82l18.45 0 7.18 -19.24c-8.69,5.95 -17.23,12.37 -25.63,19.24zm139.09 0l99.29 0c-17.6,-46.84 -34.67,-73.34 -49.64,-73.34 -14.97,0 -32.02,26.5 -49.64,73.34zm219.92 0l18.45 0c-8.4,-6.88 -16.94,-13.29 -25.63,-19.24l7.18 19.24zm18.43 1326.47l-18.43 0 -7.18 19.23c8.67,-5.97 17.23,-12.39 25.61,-19.23zm-139.07 0l-99.27 0c17.6,46.81 34.67,73.32 49.62,73.32 14.97,0 32.04,-26.51 49.64,-73.32zm-219.92 0l-18.43 0c8.4,6.85 16.94,13.26 25.61,19.21l-7.18 -19.21zm685.29 5233.88l-1409.24 0 0 -4467.78 1409.24 0 0 4467.78z"/>
   <path class="fil4" d="M1364.01 5623.29l643.26 193.99 -50.55 167.53 -643.23 -193.99 50.52 -167.53zm157.15 -460.8l634.86 219.9 -50.03 144.46 -318.43 -14.11 288.68 99.98 -47.83 138.07 -634.86 -219.92 47.81 -138.05 317.85 6.75 -285.88 -99.02 47.83 -138.05zm453.21 -388.33l-75.45 157.85 -55.06 -26.3c-34.73,-16.61 -57.1,-25.57 -67.2,-26.79 -10.24,-1.26 -17.92,3.67 -23.17,14.67 -4.52,9.46 -3.93,17.73 1.97,24.78 5.75,7.01 24.22,17.86 55.15,32.66l290.69 138.94c27.08,12.94 45.88,19.9 56.08,20.53 10.22,0.63 17.79,-4.05 22.68,-14.27 5.38,-11.23 4.11,-21.1 -3.66,-29.82 -7.79,-8.6 -25.84,-19.74 -54.08,-33.23l-71.77 -34.31 -14.67 30.64 -91.95 -43.95 87.92 -183.91 324.92 155.31 -47.45 99.24 -50.39 -6.19c13.66,19.7 21.23,39.95 22.94,60.7 1.62,20.86 -2.87,42.41 -13.41,64.52 -12.63,26.42 -30.82,48.03 -54.76,64.96 -23.9,16.84 -48.09,26.77 -72.8,29.52 -24.65,2.98 -48.11,0.85 -70.39,-6.01 -22.22,-7.03 -54.25,-20.45 -95.86,-40.34l-180.11 -86.08c-57.85,-27.67 -98.41,-50.81 -121.59,-69.58 -23.33,-18.82 -38.78,-48.2 -46.53,-88.14 -7.73,-39.95 -0.33,-83.33 22.09,-130.19 22.04,-46.1 49.72,-79.78 83.28,-101.08 33.57,-21.31 65.57,-30.47 96.02,-27.23 30.57,3.32 70.58,16.79 120.4,40.6l26.18 12.52zm-181.74 -186.13l133.95 -258.73 119.18 61.7 -53.5 103.35 113.9 58.97 49.97 -96.56 113.13 58.58 -49.98 96.55 131.26 67.93 58.96 -113.9 119.18 61.71 -139.42 269.28 -596.64 -308.88zm424.75 -699.26l557.9 374.36 -85.19 126.96 -304.3 -94.77 253.66 170.22 -81.4 121.32 -557.9 -374.38 81.4 -121.3 305.64 87.48 -251.2 -168.57 81.4 -121.32zm165.69 -223.17l538.86 401.24 -104.49 140.35 -538.87 -401.24 104.5 -140.35zm59.09 -75.79l183.05 -226.69 104.43 84.31 -73.12 90.55 99.8 80.56 68.3 -84.57 99.11 80.02 -68.29 84.59 115 92.85 80.56 -99.79 104.43 84.29 -190.51 235.93 -522.74 -422.05zm266.9 -333.04l87.64 -87.12c58.42,-58.11 100.18,-95.21 125.35,-111.25 25.18,-16.04 53.52,-21.25 85.04,-15.67 31.4,5.49 67.36,28.63 107.71,69.19 36.83,37.03 56.95,66.54 60.38,88.47 3.54,21.79 -7.05,47.51 -31.65,76.97 30.58,-18.23 55.22,-26.56 73.88,-24.73 18.49,1.77 33.09,6.01 43.6,12.54 10.57,6.44 34.93,28.93 73.16,67.39l125.07 125.79 -115.06 114.38 -157.59 -158.51c-25.35,-25.5 -43.03,-39.29 -53.13,-41.41 -10.02,-2.24 -23.46,5.14 -40.42,22l213.79 215.05 -124.08 123.36 -473.69 -476.45zm204.92 -42.04l105.41 106.02c13.85,-13.79 21.6,-25.28 23.31,-34.58 1.75,-9.29 -7.81,-24.54 -28.67,-45.53l-26.07 -26.2c-15.06,-15.15 -27.67,-22.39 -37.67,-21.81 -10,0.56 -22.16,8.03 -36.31,22.11zm271.93 -419.33l450.99 498.01 -129.7 117.45 -450.97 -498.01 129.68 -117.45zm300.26 -258.03l508.85 449.97 -136.65 114.87 -84.86 -86.21 -48.22 40.54 70.33 98.42 -138.36 116.33 -364.52 -571.31 193.42 -162.6zm207.24 390.61c-55.4,-52.93 -122.77,-119.44 -202.36,-199.58 69.84,109.93 122.17,189.11 156.96,237.74l45.4 -38.17zm67.41 -603.07l240.7 -164.15 75.62 110.88 -96.15 65.57 72.27 105.95 89.81 -61.26 71.79 105.26 -89.83 61.24 83.28 122.11 105.96 -72.27 75.62 110.88 -250.53 170.85 -378.54 -555.08zm651.94 -418.73l351.48 572.6 -130.33 79.97 -237.24 -212.81 159.81 260.35 -124.52 76.43 -351.45 -572.59 124.51 -76.44 241.49 206.75 -158.26 -257.84 124.51 -76.43zm676.15 -108.43l-145.95 70.88 -21.68 -44.69c-10.16,-20.9 -18.56,-33.34 -25.04,-37.27 -6.47,-3.95 -13.94,-3.76 -22.62,0.43 -9.41,4.58 -14.69,11.87 -15.75,21.98 -1.14,9.98 2.08,22.77 9.67,38.42 9.77,20.11 19.95,33.92 30.34,41.43 10.25,7.46 31.02,12.67 62.4,15.36 89.89,7.82 150.43,20.75 181.42,38.57 31.15,17.77 61.03,56.32 89.72,115.41 20.9,43.04 31.21,77.2 31.1,102.59 -0.17,25.26 -11.22,51.72 -33.46,79.5 -22.05,27.86 -52.2,51.02 -90.53,69.62 -42.02,20.4 -81.71,29.75 -119.22,28.3 -37.41,-1.51 -66.6,-12.36 -87.81,-32.42 -21.18,-20.24 -42.77,-53.05 -64.72,-98.25l-19.23 -39.59 145.94 -70.87 35.68 73.48c11.01,22.67 20.1,36.18 27.34,40.71 7.23,4.51 16.02,4.18 26.46,-0.89 10.44,-5.06 16.22,-12.92 17.3,-23.66 1.13,-10.64 -2.24,-24.08 -10.03,-40.13 -17.27,-35.54 -33.42,-56.49 -48.35,-62.61 -15.37,-6.06 -48.72,-12.55 -100.18,-19.34 -51.52,-6.94 -86.42,-13.28 -104.82,-18.82 -18.3,-5.58 -36.71,-16.65 -55.02,-33.27 -18.28,-16.58 -35.29,-40.9 -50.87,-72.99 -22.46,-46.25 -33.03,-82.95 -31.58,-110.09 1.47,-27.15 12.34,-53.06 32.81,-77.94 20.51,-24.89 49.31,-46.27 86.63,-64.4 40.74,-19.79 78.58,-29.99 113.73,-30.84 35.09,-0.65 62.09,6.66 81.16,22.29 19,15.47 40.26,47.19 63.57,95.19l11.62 23.94zm194.16 -293.6l239.41 627.78 -163.48 62.34 -239.43 -627.76 163.5 -62.36zm504.21 37.01l-153.81 51.65 -15.82 -47.1c-7.38,-22 -14.11,-35.41 -20.05,-40.14 -5.91,-4.73 -13.35,-5.52 -22.48,-2.45 -9.94,3.32 -16.09,9.87 -18.45,19.76 -2.39,9.77 -0.83,22.86 4.7,39.36 7.12,21.18 15.43,36.17 24.81,44.97 9.21,8.69 29.15,16.5 59.92,23.18 88.14,19.21 146.56,39.79 175.01,61.42 28.63,21.6 53.35,63.63 74.27,125.89 15.24,45.36 21.1,80.57 17.75,105.72 -3.39,25.04 -17.75,49.88 -43.34,74.59 -25.43,24.83 -58.29,43.93 -98.66,57.5 -44.28,14.88 -84.86,19.08 -121.87,12.87 -36.9,-6.28 -64.46,-20.77 -82.95,-43.38 -18.43,-22.79 -35.66,-58.08 -51.65,-105.72l-14.01 -41.72 153.79 -51.65 26 77.44c8.03,23.87 15.32,38.43 21.91,43.84 6.62,5.4 15.37,6.21 26.37,2.49 11.01,-3.67 17.73,-10.72 20.19,-21.27 2.49,-10.37 0.82,-24.14 -4.84,-41.06 -12.59,-37.45 -25.94,-60.27 -39.95,-68.27 -14.5,-7.97 -46.75,-18.65 -96.92,-31.95 -50.22,-13.46 -83.99,-24.21 -101.54,-32.04 -17.44,-7.88 -34.29,-21.21 -50.34,-40.02 -16,-18.8 -29.79,-45.09 -41.15,-78.91 -16.35,-48.72 -22.15,-86.48 -17.27,-113.22 4.92,-26.72 19.01,-51.04 42.51,-73.1 23.5,-22.09 54.8,-39.61 94.12,-52.82 42.95,-14.43 81.77,-19.7 116.74,-16.09 34.9,3.83 60.75,14.54 77.66,32.47 16.88,17.79 33.88,51.94 50.87,102.54l8.49 25.22zm383.34 -316.74l34.38 129.75 -99.35 26.33 137.76 519.7 -169.13 44.82 -137.76 -519.7 -100.16 26.55 -34.38 -129.73 368.63 -97.73zm67.04 -12.08l284.5 -62.81 28.93 131.06 -113.64 25.09 27.67 125.24 106.15 -23.44 27.48 124.41 -106.16 23.41 31.87 144.35 125.24 -27.67 28.93 131.05 -296.09 65.37 -144.87 -656.06zm939.61 -152.29l84.75 666.5 -151.66 19.27 -57.63 -449.87 -3.04 457.6 -106.17 13.48 -119.5 -431.73 55.49 439.87 -151.68 19.28 -84.73 -666.5 223.97 -28.47c11.45,39.52 24.38,86.1 38.72,139.35l46.1 166.11 -0.13 -316.21 225.53 -28.69zm445.04 -17.58l111.34 670.06 -178.49 3.02 -11.51 -120.43 -62.98 1.07 -7.45 120.76 -180.74 3.06 77.19 -673.27 252.65 -4.29zm-85.36 433.86c-9.65,-76.02 -20.03,-170.13 -31.27,-282.51 -15.09,129.38 -24.36,223.83 -28.04,283.51l59.31 -1zm599.57 -230.14l-162.21 -1.16 0.35 -49.68c0.17,-23.22 -1.84,-38.11 -5.91,-44.5 -4.05,-6.4 -10.83,-9.56 -20.46,-9.63 -10.46,-0.09 -18.41,4.12 -23.86,12.7 -5.45,8.44 -8.23,21.31 -8.36,38.72 -0.17,22.37 2.83,39.24 8.82,50.6 5.86,11.23 22.2,25.11 49.11,41.44 77.12,46.83 125.66,85.27 145.56,115 20.03,29.75 29.73,77.52 29.24,143.21 -0.35,47.85 -6.23,83.04 -17.6,105.74 -11.33,22.57 -33.01,41.39 -65.24,56.45 -32.11,15.19 -69.39,22.59 -112.01,22.28 -46.7,-0.35 -86.43,-9.57 -119.41,-27.49 -32.86,-17.95 -54.22,-40.61 -64.35,-67.98 -10,-27.56 -14.82,-66.52 -14.45,-116.77l0.33 -44.01 162.21 1.15 -0.59 81.69c-0.18,25.19 1.99,41.35 6.46,48.61 4.49,7.25 12.52,10.86 24.14,10.94 11.6,0.07 20.24,-4.4 25.98,-13.56 5.73,-9.03 8.66,-22.57 8.79,-40.41 0.28,-39.5 -4.92,-65.44 -15.58,-77.55 -11.1,-12.26 -38.13,-32.85 -81.23,-61.74 -43.12,-29.07 -71.58,-50.22 -85.62,-63.35 -13.92,-13.11 -25.52,-31.19 -34.58,-54.19 -9.02,-22.98 -13.48,-52.33 -13.24,-88.01 0.37,-51.39 7.18,-88.98 20.51,-112.68 13.35,-23.68 34.58,-42.09 63.95,-55.3 29.42,-13.22 64.72,-19.64 106.2,-19.34 45.29,0.33 83.73,7.97 115.61,22.79 31.74,14.95 52.7,33.49 62.88,55.93 10.16,22.33 15.15,60.14 14.76,113.5l-0.2 26.62zm669.73 162.82l-173.45 -22.92 15.28 -115.66c4.44,-33.68 5.38,-54.84 2.84,-63.74 -2.56,-8.75 -10.15,-14.04 -22.63,-15.69 -14.03,-1.86 -23.68,2 -28.8,11.61 -5.15,9.74 -10.01,31.38 -14.45,65.04l-40.83 309.06c-4.29,32.42 -5.1,53.71 -2.62,64.19 2.49,10.31 10.42,16.37 23.61,18.13 12.74,1.68 21.82,-2.15 27.06,-11.59 5.23,-9.3 10.29,-32.33 15.13,-68.97l11.07 -83.79 173.45 22.9 -3.43 25.98c-9.13,69.05 -20.49,117.38 -33.99,144.87 -13.5,27.65 -38.46,50.03 -74.59,67.39 -36.27,17.36 -78.69,22.74 -127.5,16.3 -50.67,-6.7 -91.29,-21.36 -121.85,-44.1 -30.4,-22.72 -48.94,-51.02 -55.3,-84.97 -6.37,-33.99 -5.25,-83.52 3.37,-148.77l25.69 -194.52c6.32,-48 12.76,-83.72 19.17,-107.3 6.53,-23.54 19.26,-45.42 38.63,-65.41 19.19,-20.03 44.11,-34.58 74.71,-43.54 30.6,-8.95 64.69,-10.87 102.3,-5.9 50.96,6.74 91.76,22.11 122.4,46.29 30.51,24.03 49.05,51.46 55.69,82.32 6.5,30.84 5.64,77.26 -2.59,139.46l-8.36 63.31zm461.7 192.46c-14.34,65.99 -26,112.26 -35.16,138.96 -9.02,26.87 -24.14,49.79 -45.4,68.93 -21.25,19.14 -47.18,31.75 -77.63,37.89 -30.45,6.12 -64.13,5.18 -101.07,-2.85 -35.14,-7.64 -65.27,-20.29 -90.72,-37.84 -25.44,-17.58 -44.26,-39.62 -56.15,-66.26 -12.02,-26.66 -16.67,-53.89 -14.11,-81.6 2.71,-27.78 11.31,-75.44 26,-142.95l24.42 -112.33c14.36,-66 26,-112.29 35.16,-138.99 9.02,-26.87 24.14,-49.79 45.4,-68.93 21.27,-19.14 47.18,-31.75 77.63,-37.89 30.45,-6.12 64.15,-5.16 101.1,2.87 35.11,7.64 65.26,20.27 90.69,37.82 25.46,17.58 44.28,39.62 56.17,66.26 12,26.66 16.65,53.91 14.11,81.6 -2.73,27.8 -11.33,75.47 -26.02,142.97l-24.42 112.34zm-124.08 -252.85c6.64,-30.4 9.2,-50.28 7.75,-59.57 -1.5,-9.18 -7.34,-14.93 -17.58,-17.15 -8.71,-1.9 -16.08,0.11 -22.31,6 -6.03,5.8 -12.8,25.61 -20.16,59.36l-66.62 306.38c-8.28,38.06 -11.87,61.9 -10.73,71.42 1.07,9.66 7.16,15.63 18.23,18.04 11.36,2.45 19.79,-1.09 25.2,-10.62 5.4,-9.54 12.26,-33.7 20.64,-72.29l65.57 -301.57zm827.66 31.39l-178.64 647.68 -147.39 -40.65 120.21 -437.34 -179.15 421.08 -103.18 -28.45 56.1 -444.48 -118.33 427.29 -147.36 -40.65 178.64 -647.68 217.65 60.04c-4.66,40.89 -10.68,88.85 -17.99,143.52l-21.47 171.02 121.76 -291.84 219.16 60.45zm112.94 49.37l165.49 59.8c44.71,16.17 77.81,32.06 99.4,47.83 21.4,15.71 35.85,32.39 43.2,49.94 7.32,17.69 9.59,36.72 7.23,57.08 -2.58,20.47 -10.99,50.37 -25.28,89.92l-19.88 54.97c-14.54,40.22 -29.28,68.16 -44.32,83.48 -14.95,15.52 -35.42,24.22 -61.05,26.11 -25.8,1.82 -56.6,-3.74 -92.43,-16.7l-44.06 -15.91 -92.1 254.82 -164.55 -59.47 228.35 -631.87zm125.59 167.31l-58.18 160.99c4.56,1.95 8.49,3.5 11.85,4.71 15.04,5.45 26.76,5.47 35.33,0.13 8.36,-5.25 16.88,-19.64 25.32,-43.06l18.82 -52.07c7.8,-21.55 9.59,-36.87 5.15,-45.87 -4.3,-8.93 -17.14,-17.17 -38.29,-24.83zm683.51 171.26l-186.39 408.68c-21.16,46.38 -37.56,78.25 -49.05,95.58 -11.67,17.39 -29.34,32.66 -53.16,45.62 -23.86,13.07 -50.26,19.06 -79.11,18.21 -28.97,-0.94 -59.92,-8.82 -92.91,-23.85 -36.44,-16.63 -65.89,-37.37 -88.16,-62.16 -22.44,-24.87 -36.11,-50.08 -41.08,-75.69 -5.06,-25.8 -3.83,-49.96 3.39,-72.66 7.37,-22.63 26.76,-68.56 58.2,-137.45l165.1 -361.94 159.19 72.62 -209.14 458.52c-12.17,26.66 -18.56,44.43 -19.08,53.06 -0.59,8.75 3.5,15.15 12.15,19.09 9.79,4.46 18.1,3.28 24.65,-3.55 6.59,-6.96 16.81,-25.63 30.67,-56.01l205.56 -450.66 159.19 72.6zm408.63 222.82l-63.9 118.04 -90.39 -48.92 -255.93 472.82 -153.87 -83.28 255.93 -472.82 -91.14 -49.33 63.89 -118.04 335.41 181.54zm298.54 189.33l-275.21 620.99 -150.79 -95.56 56.54 -106.95 -53.22 -33.73 -72.57 96.8 -152.69 -96.77 434.52 -520.05 213.42 135.27zm-309.75 315.53c33.73,-68.79 76.79,-153.12 129.12,-253.19 -83.68,99.81 -143.37,173.61 -179.22,221.46l50.09 31.73zm609.64 264.97l-140.59 -104.15 69.47 -93.72c20.23,-27.3 31.3,-45.36 33.4,-54.37 2,-8.88 -2.08,-17.18 -12.19,-24.69 -11.36,-8.43 -21.66,-9.75 -30.82,-3.83 -9.22,6.04 -23.96,22.59 -44.19,49.88l-185.58 250.46c-19.49,26.28 -30.51,44.51 -33.45,54.87 -2.8,10.24 1.18,19.37 11.87,27.29 10.35,7.66 20.14,8.73 29.28,3.02 9.09,-5.6 24.68,-23.29 46.67,-52.99l50.34 -67.89 140.57 104.15 -15.58 21.06c-41.48,55.95 -74.86,92.69 -100.01,110.18 -25.2,17.65 -57.89,25.13 -97.9,22.77 -40.15,-2.41 -79.85,-18.28 -119.42,-47.58 -41.06,-30.43 -69.47,-62.95 -85.16,-97.66 -15.59,-34.6 -18.06,-68.36 -7.14,-101.12 10.9,-32.81 35.9,-75.6 75.09,-128.48l116.79 -157.64c28.83,-38.91 51.79,-67.01 68.82,-84.53 17.14,-17.42 38.89,-30.38 65.51,-38.48 26.5,-8.2 55.35,-8.83 86.48,-1.84 31.08,7.03 61.83,21.9 92.3,44.45 41.3,30.6 69.51,63.83 84.6,99.86 15.03,35.81 17.92,68.79 8.75,98.99 -9.29,30.12 -32.55,70.3 -69.89,120.71l-38.02 51.28zm395.16 -44.01l-442.37 505.66 -131.69 -115.19 442.39 -505.67 131.67 115.2zm96.11 630.23c-47.96,47.54 -82.91,80.02 -105.11,97.45 -22.2,17.62 -47.36,28.62 -75.62,33.11 -28.23,4.49 -56.86,0.96 -85.73,-10.46 -28.86,-11.44 -56.62,-30.55 -83.23,-57.38 -25.33,-25.55 -43.73,-52.55 -55.53,-81.15 -11.78,-28.58 -15.57,-57.32 -11.05,-86.12 4.44,-28.91 15.34,-54.28 32.57,-76.15 17.4,-21.84 50.56,-57.15 99.61,-105.78l81.64 -80.94c47.94,-47.53 82.91,-80.04 105.11,-97.46 22.2,-17.65 47.36,-28.63 75.62,-33.12 28.26,-4.49 56.86,-0.96 85.73,10.46 28.89,11.42 56.62,30.58 83.23,57.43 25.33,25.52 43.76,52.53 55.54,81.1 11.8,28.58 15.58,57.32 11.05,86.12 -4.43,28.91 -15.37,54.3 -32.55,76.15 -17.43,21.84 -50.61,57.15 -99.66,105.78l-81.62 80.96zm33.51 -279.66c22.11,-21.91 35.07,-37.18 38.91,-45.77 3.74,-8.51 1.98,-16.52 -5.4,-23.96 -6.28,-6.32 -13.55,-8.64 -21.98,-7.1 -8.23,1.58 -24.7,14.52 -49.23,38.83l-222.63 220.78c-27.65,27.43 -43.62,45.47 -47.87,54.07 -4.36,8.7 -2.48,17.03 5.49,25.06 8.18,8.25 17.18,9.87 26.89,4.82 9.75,-5.08 28.63,-21.6 56.67,-49.42l219.14 -217.3zm586.72 382.88l-514.38 432.2 -98.37 -117.05 175.43 -266.11 -233.89 196.53 -93.99 -111.87 514.4 -432.19 93.99 111.86 -168.8 269.38 231.64 -194.61 93.97 111.86zm252.97 316.24l-475.01 485.55 -107.84 -142.24 90.37 -80.41 -38.06 -50.22 -101.85 65.31 -109.21 -144.06 588.93 -335.3 152.66 201.37zm-400.55 187.31c55.67,-52.65 125.47,-116.61 209.51,-192.06 -113.31,64.24 -195.02,112.52 -245.36,144.78l35.85 47.27zm604.89 109.95l-453.95 288.1 56.43 88.92 -113.31 71.92 -150.17 -236.67 567.26 -360.01 93.74 147.74zm86.19 135.7l151.44 248.89 -114.65 69.75 -60.5 -99.41 -109.58 66.67 56.52 92.87 -108.83 66.23 -56.51 -92.89 -126.27 76.85 66.67 109.57 -114.65 69.76 -157.61 -259.07 573.96 -349.22zm188.27 774.02l-72.79 -144.98 44.41 -22.29c20.74,-10.42 33.07,-18.99 36.92,-25.52 3.84,-6.53 3.58,-14 -0.75,-22.61 -4.68,-9.35 -12.04,-14.54 -22.15,-15.48 -10.02,-0.98 -22.74,2.39 -38.3,10.2 -19.99,10.03 -33.64,20.38 -41.04,30.89 -7.32,10.33 -12.24,31.16 -14.52,62.59 -6.63,89.98 -18.75,150.7 -36.16,181.93 -17.36,31.37 -55.51,61.75 -114.2,91.23 -42.75,21.47 -76.79,32.24 -102.15,32.46 -25.29,0.17 -51.9,-10.55 -79.96,-32.4 -28.15,-21.68 -51.7,-51.52 -70.83,-89.61 -20.95,-41.73 -30.82,-81.31 -29.88,-118.82 1.02,-37.44 11.46,-66.76 31.25,-88.25 19.97,-21.43 52.48,-43.47 97.4,-66.02l39.33 -19.74 72.78 144.98 -73 36.63c-22.5,11.32 -35.89,20.58 -40.32,27.87 -4.42,7.29 -3.98,16.08 1.22,26.48 5.21,10.35 13.14,16.02 23.9,16.97 10.64,1 24.03,-2.56 40,-10.57 35.3,-17.73 56.03,-34.15 61.96,-49.16 5.84,-15.45 11.89,-48.9 17.99,-100.44 6.26,-51.61 12.15,-86.57 17.43,-105.04 5.36,-18.39 16.17,-36.95 32.52,-55.49 16.37,-18.5 40.46,-35.83 72.34,-51.83 45.92,-23.07 82.5,-34.12 109.66,-33.05 27.17,1.11 53.21,11.64 78.36,31.77 25.17,20.16 46.92,48.7 65.54,85.76 20.32,40.47 31.02,78.17 32.36,113.31 1.11,35.09 -5.84,62.18 -21.21,81.47 -15.23,19.19 -46.64,40.86 -94.34,64.8l-23.79 11.94z"/>
   <path class="fil4" d="M6383.42 13138.67l-146.01 655.8 -170.79 -38.02 146.02 -655.82 170.78 38.04zm380.5 73.74l-22.57 132.31 -101.31 -17.27 -90.35 529.99 -172.5 -29.4 90.37 -530 -102.15 -17.41 22.57 -132.3 375.94 64.08zm156.61 23.49l174.64 21.47c47.19,5.79 82.99,13.91 107.53,24.47 24.36,10.55 42.18,23.59 53.24,39.07 11.07,15.63 17.55,33.66 19.77,54.06 2.03,20.51 0.5,51.55 -4.62,93.28l-7.14 58.03c-5.21,42.42 -13.37,72.95 -24.63,91.25 -11.12,18.45 -29.11,31.49 -53.71,39.04 -24.74,7.51 -56.02,8.95 -93.81,4.3l-46.51 -5.71 -33.05 268.92 -173.65 -21.33 81.95 -666.85zm159.67 135.16l-20.88 169.89c4.88,0.87 9.08,1.54 12.6,1.95 15.87,1.97 27.32,-0.63 34.47,-7.73 6.99,-7 12.07,-22.91 15.11,-47.63l6.74 -54.93c2.8,-22.79 1.14,-38.11 -5.18,-45.88 -6.17,-7.75 -20.54,-12.94 -42.86,-15.67zm510.74 -74.27l50.72 677.36 -178.04 -13 -0.67 -120.98 -62.82 -4.6 -18.25 119.59 -180.29 -13.17 137.34 -663.61 252.02 18.4zm-123.99 424.45c-2.76,-76.59 -4.65,-171.23 -5.78,-284.16 -26.61,127.5 -44.36,220.73 -53.39,279.83l59.17 4.34zm191.62 -423.47l123.55 -2.49c82.41,-1.67 138.23,0.33 167.51,6.1 29.26,5.8 53.39,21.58 72.31,47.38 18.93,25.68 28.96,67.24 30.12,124.43 1.05,52.22 -4.75,87.46 -17.42,105.7 -12.5,18.21 -37.91,29.5 -76.04,33.81 34.71,7.92 58.29,18.91 70.47,33.12 12.17,14.05 19.81,27.21 22.9,39.2 3.19,11.95 5.27,45.05 6.36,99.26l3.59 177.34 -162.19 3.28 -4.53 -223.48c-0.72,-35.96 -3.99,-58.14 -9.83,-66.65 -5.69,-8.53 -20.51,-12.47 -44.43,-12l6.12 303.17 -174.92 3.54 -13.59 -671.73zm177.27 111.13l3.02 149.44c19.55,-0.39 33.07,-3.34 40.73,-8.9 7.68,-5.51 11.29,-23.14 10.68,-52.72l-0.74 -36.95c-0.44,-21.35 -4.53,-35.3 -12.17,-41.8 -7.64,-6.5 -21.56,-9.48 -41.52,-9.06zm253.92 -121.72l123.36 -7.29c82.25,-4.86 138.11,-5.01 167.59,-0.37 29.48,4.64 54.19,19.48 74.11,44.54 19.9,24.91 31.54,66.06 34.92,123.16 3.08,52.14 -1.36,87.57 -13.31,106.28 -11.78,18.69 -36.72,30.95 -74.68,36.75 35,6.57 58.99,16.63 71.73,30.36 12.69,13.57 20.81,26.42 24.38,38.26 3.65,11.85 7.03,44.82 10.22,98.95l10.44 177.07 -161.95 9.55 -13.17 -223.12c-2.11,-35.9 -6.24,-57.95 -12.42,-66.22 -6.01,-8.29 -20.96,-11.67 -44.84,-10.26l17.86 302.71 -174.66 10.31 -39.57 -670.69zm181.4 104.14l8.81 149.25c19.51,-1.16 32.93,-4.64 40.37,-10.48 7.46,-5.8 10.37,-23.58 8.64,-53.11l-2.19 -36.87c-1.26,-21.36 -5.91,-35.12 -13.76,-41.33 -7.9,-6.19 -21.94,-8.62 -41.87,-7.46zm520.13 -175.41l191.56 651.68 -176.81 24.61 -26 -118.15 -62.4 8.68 7.2 120.76 -179.04 24.91 -4.8 -677.66 250.28 -34.83zm-32.28 441.01c-18.76,-74.31 -40.43,-166.46 -65.2,-276.63 0.69,130.23 2.88,225.13 6.46,284.8l58.75 -8.16zm304.8 -490.48l96.15 529 103.61 -18.84 24.01 132.03 -275.79 50.11 -120.14 -661.03 172.15 -31.27z"/>
  </g>
 </g>
</svg>
